<svg class="ldi-1pz4o2" width="200px"  height="200px"  xmlns="http://www.w3.org/2000/svg" xmlns:xlink="http://www.w3.org/1999/xlink" viewBox="0 0 100 100" preserveAspectRatio="xMidYMid" style="background: none;"><!--?xml version="1.0" encoding="utf-8"?--><!--Generator: Adobe Illustrator 21.0.0, SVG Export Plug-In . SVG Version: 6.00 Build 0)--><svg version="1.1" id="圖層_1" xmlns="http://www.w3.org/2000/svg" xmlns:xlink="http://www.w3.org/1999/xlink" x="0px" y="0px" viewBox="0 0 100 100" style="transform-origin: 50px 50px 0px;" xml:space="preserve"><g style="transform-origin: 50px 50px 0px;"><g style="transform-origin: 50px 50px 0px; transform: scale(0.6);"><g style="transform-origin: 50px 50px 0px;"><g><style type="text/css" class="ld ld-fade" style="transform-origin: 50px 50px 0px; animation-duration: 5.8s; animation-delay: -5.8s; animation-direction: normal;">.st0{fill:none;stroke:#F8B26A;stroke-width:4;stroke-miterlimit:10;} .st1{fill:#E15B64;} .st2{fill:#ABBD81;} .st3{fill:#849B87;} .st4{fill:#F5E6C8;} .st5{fill:#C8DC96;} .st6{fill:#CCCCCC;} .st7{fill:#333333;} .st8{fill:#E0E0E0;} .st9{fill:#FFFFFF;stroke:#E15B64;stroke-width:9.375;stroke-miterlimit:10;} .st10{fill:#E0E0E0;stroke:#333333;stroke-width:3;stroke-linecap:round;stroke-miterlimit:10;} .st11{fill:#666666;stroke:#333333;stroke-width:3;stroke-linecap:round;stroke-miterlimit:10;} .st12{fill:none;stroke:#E15B64;stroke-width:8;stroke-miterlimit:10;} .st13{fill:#E0E0E0;stroke:#333333;stroke-width:2.5723;stroke-linecap:round;stroke-miterlimit:10;} .st14{fill:#666666;stroke:#333333;stroke-width:2.5723;stroke-linecap:round;stroke-miterlimit:10;} .st15{fill:#E0E0E0;stroke:#333333;stroke-width:2.935;stroke-linecap:round;stroke-miterlimit:10;} .st16{fill:#666666;stroke:#333333;stroke-width:2.935;stroke-linecap:round;stroke-miterlimit:10;} .st17{fill:#ABBD81;stroke:#333333;stroke-width:3.5653;stroke-linecap:round;stroke-miterlimit:10;} .st18{fill:none;stroke:#333333;stroke-width:4.208;stroke-linecap:round;stroke-miterlimit:10;} .st19{fill:#F47E60;stroke:#333333;stroke-width:3.607;stroke-miterlimit:10;} .st20{fill:#F47E60;stroke:#333333;stroke-width:4.0972;stroke-miterlimit:10;} .st21{fill:#F47E60;stroke:#333333;stroke-width:4.2085;stroke-miterlimit:10;} .st22{fill:#F8B26A;} .st23{fill:#FFFFFF;} .st24{fill:#FFFFFF;stroke:#FFFFFF;stroke-miterlimit:10;} .st25{fill:none;stroke:#FFFFFF;stroke-width:2;stroke-linecap:round;stroke-miterlimit:10;} .st26{fill:#E0E0E0;stroke:#332518;stroke-width:4;stroke-linecap:round;stroke-miterlimit:10;} .st27{fill:#66503A;} .st28{fill:#666666;} .st29{fill:#FFFFFF;stroke:#E0E0E0;stroke-width:5;stroke-linecap:round;stroke-miterlimit:10;} .st30{fill:none;stroke:#666666;stroke-width:4;stroke-miterlimit:10;stroke-dasharray:7.8519,7.8519;} .st31{fill:#F8B26A;stroke:#F47E60;stroke-width:4;stroke-miterlimit:10;} .st32{fill:none;stroke:#C33737;stroke-width:8;stroke-miterlimit:10;} .st33{fill:#A0C8D7;} .st34{fill:#F47E60;} .st35{fill:#C33737;stroke:#E15B64;stroke-width:5;stroke-miterlimit:10;} .st36{fill:#4A3827;} .st37{opacity:0.5;} .st38{fill:none;stroke:#000000;stroke-width:2.2018;stroke-miterlimit:10;} .st39{fill:none;stroke:#000000;stroke-width:2.2018;stroke-miterlimit:10;stroke-dasharray:4.7318,4.7318;} .st40{fill:none;stroke:#333333;stroke-width:7.4066;stroke-miterlimit:10;} .st41{fill:none;stroke:#333333;stroke-width:7.6862;stroke-miterlimit:10;} .st42{fill:#F8B26A;stroke:#333333;stroke-width:4;stroke-miterlimit:10;} .st43{fill:#F5E6C8;stroke:#333333;stroke-width:4;stroke-miterlimit:10;} .st44{fill:none;stroke:#333333;stroke-width:4;stroke-miterlimit:10;} .st45{opacity:0.2;} .st46{fill:none;stroke:#332518;stroke-width:4;stroke-linecap:round;stroke-miterlimit:10;} .st47{fill-rule:evenodd;clip-rule:evenodd;fill:#B5B5B5;} .st48{fill:#FFFFFF;stroke:#FFFFFF;stroke-width:0.6282;stroke-miterlimit:10;} .st49{fill:none;stroke:#FFFFFF;stroke-width:1.2563;stroke-linecap:round;stroke-miterlimit:10;} .st50{opacity:0.6;fill:#F5E169;} .st51{fill:none;} .st52{fill:#F8B26A;stroke:#333333;stroke-width:3.6728;stroke-linejoin:round;stroke-miterlimit:10;} .st53{fill:none;stroke:#E0E0E0;stroke-width:1.5;stroke-miterlimit:10;} .st54{fill:#66503A;stroke:#4A3827;stroke-width:3;stroke-miterlimit:10;} .st55{fill:none;stroke:#4A3827;stroke-width:3;stroke-miterlimit:10;} .st56{fill:none;stroke:#333333;stroke-width:3.1166;stroke-linecap:round;stroke-miterlimit:10;} .st57{fill:#999999;stroke:#333333;stroke-width:3;stroke-miterlimit:10;} .st58{fill:#E0E0E0;stroke:#333333;stroke-width:3.5653;stroke-linecap:round;stroke-miterlimit:10;} .st59{fill:#666666;stroke:#333333;stroke-width:3.5653;stroke-linecap:round;stroke-miterlimit:10;} .st60{fill:none;stroke:#333333;stroke-width:3;stroke-miterlimit:10;} .st61{fill:#E0E0E0;stroke:#333333;stroke-width:3.1759;stroke-linecap:round;stroke-miterlimit:10;} .st62{fill:#666666;stroke:#333333;stroke-width:3.1759;stroke-linecap:round;stroke-miterlimit:10;} .st63{fill:#E0E0E0;stroke:#333333;stroke-width:3.1886;stroke-linecap:round;stroke-miterlimit:10;} .st64{fill:#666666;stroke:#333333;stroke-width:3.1886;stroke-linecap:round;stroke-miterlimit:10;} .st65{fill:#E0E0E0;stroke:#333333;stroke-width:3.1503;stroke-linecap:round;stroke-miterlimit:10;} .st66{fill:#666666;stroke:#333333;stroke-width:3.1503;stroke-linecap:round;stroke-miterlimit:10;} .st67{fill:#FFFFFF;stroke:#333333;stroke-width:4;stroke-miterlimit:10;} .st68{fill:none;stroke:#849B87;stroke-width:4;stroke-linecap:round;stroke-miterlimit:10;} .st69{fill:#FFFFFF;stroke:#333333;stroke-width:3.9519;stroke-miterlimit:10;} .st70{fill:none;stroke:#E15B64;stroke-width:3.9519;stroke-linecap:round;stroke-miterlimit:10;} .st71{fill:#FFFFFF;stroke:#333333;stroke-width:3.9841;stroke-miterlimit:10;} .st72{fill:#C33737;} .st73{fill:none;stroke:#E15B64;stroke-width:9.8945;stroke-miterlimit:10;} .st74{fill:#ABBD81;stroke:#333333;stroke-width:2.9913;stroke-linecap:round;stroke-miterlimit:10;} .st75{fill:#66503A;stroke:#333333;stroke-width:2.9913;stroke-linecap:round;stroke-miterlimit:10;} .st76{fill:#E0E0E0;stroke:#333333;stroke-width:2.8537;stroke-linecap:round;stroke-miterlimit:10;} .st77{fill:#666666;stroke:#333333;stroke-width:2.8537;stroke-linecap:round;stroke-miterlimit:10;} .st78{fill:#E0E0E0;stroke:#333333;stroke-width:3.1909;stroke-linecap:round;stroke-miterlimit:10;} .st79{fill:#666666;stroke:#333333;stroke-width:3.1909;stroke-linecap:round;stroke-miterlimit:10;} .st80{fill:#666666;stroke:#333333;stroke-width:4.9453;stroke-linecap:round;stroke-miterlimit:10;} .st81{fill:#F5E6C8;stroke:#333333;stroke-width:4.0165;stroke-linecap:round;stroke-linejoin:round;stroke-miterlimit:10;} .st82{fill:#E0E0E0;stroke:#333333;stroke-width:3;stroke-miterlimit:10;} .st83{fill:#666666;stroke:#333333;stroke-width:3;stroke-miterlimit:10;} .st84{fill:#F5E6C8;stroke:#333333;stroke-miterlimit:10;} .st85{fill:#F8B26A;stroke:#333333;stroke-miterlimit:10;} .st86{fill:#77A4BD;} .st87{fill:none;stroke:#333333;stroke-width:2.3991;stroke-miterlimit:10;} .st88{fill:#666666;stroke:#333333;stroke-width:5.1406;stroke-linecap:round;stroke-miterlimit:10;} .st89{fill:#66503A;stroke:#333333;stroke-width:3;stroke-linecap:round;stroke-miterlimit:10;}</style><g style="transform-origin: 50px 50px 0px;"><g><g style="transform-origin: 50px 50px 0px;"><g><g style="transform-origin: 50px 50px 0px;"><g><g class="ld ld-fade" style="transform-origin: 50px 50px 0px; animation-duration: 5.8s; animation-delay: -5.77056s; animation-direction: normal;"><path class="st22" d="M44.322,44.703v0.356c0-0.12,0.012-0.238,0.03-0.356H44.322z" fill="rgb(248, 178, 106)" style="fill: rgb(248, 178, 106);"></path></g></g></g><g style="transform-origin: 50px 50px 0px;"><g><g class="ld ld-fade" style="transform-origin: 50px 50px 0px; animation-duration: 5.8s; animation-delay: -5.74112s; animation-direction: normal;"><path class="st22" d="M64.309,44.703c0.018,0.118,0.03,0.236,0.03,0.356v-0.356H64.309z" fill="rgb(248, 178, 106)" style="fill: rgb(248, 178, 106);"></path></g></g></g><g style="transform-origin: 50px 50px 0px;"><g><g class="ld ld-fade" style="transform-origin: 50px 50px 0px; animation-duration: 5.8s; animation-delay: -5.71168s; animation-direction: normal;"><path class="st22" d="M54.33,49.873c-4.344,0-8.039-1.331-9.424-3.191c-0.377-0.507-0.584-1.053-0.584-1.623v3.245 c0,2.658,4.481,4.814,10.009,4.814s10.009-2.155,10.009-4.814v-3.245c0,0.569-0.207,1.115-0.584,1.623 C62.37,48.542,58.674,49.873,54.33,49.873z" fill="rgb(248, 178, 106)" style="fill: rgb(248, 178, 106);"></path></g></g></g></g></g><g class="ld ld-fade" style="transform-origin: 50px 50px 0px; animation-duration: 5.8s; animation-delay: -5.68223s; animation-direction: normal;"><path class="st4" d="M64.309,44.703c-0.379-2.492-4.7-4.458-9.978-4.458s-9.599,1.966-9.978,4.458 c-0.018,0.118-0.03,0.236-0.03,0.356c0,0.569,0.207,1.115,0.584,1.623c1.385,1.86,5.081,3.191,9.424,3.191s8.039-1.331,9.424-3.191 c0.377-0.507,0.584-1.053,0.584-1.623C64.339,44.939,64.327,44.821,64.309,44.703z" fill="rgb(245, 230, 200)" style="fill: rgb(245, 230, 200);"></path></g><g style="transform-origin: 50px 50px 0px;"><g><g style="transform-origin: 50px 50px 0px;"><g><g class="ld ld-fade" style="transform-origin: 50px 50px 0px; animation-duration: 5.8s; animation-delay: -5.65279s; animation-direction: normal;"><path class="st22" d="M44.322,44.703v0.356c0-0.12,0.012-0.238,0.03-0.356H44.322z" fill="rgb(248, 178, 106)" style="fill: rgb(248, 178, 106);"></path></g></g></g><g style="transform-origin: 50px 50px 0px;"><g><g class="ld ld-fade" style="transform-origin: 50px 50px 0px; animation-duration: 5.8s; animation-delay: -5.62335s; animation-direction: normal;"><path class="st22" d="M64.309,44.703c0.018,0.118,0.03,0.236,0.03,0.356v-0.356H64.309z" fill="rgb(248, 178, 106)" style="fill: rgb(248, 178, 106);"></path></g></g></g><g style="transform-origin: 50px 50px 0px;"><g><g class="ld ld-fade" style="transform-origin: 50px 50px 0px; animation-duration: 5.8s; animation-delay: -5.59391s; animation-direction: normal;"><path class="st22" d="M54.33,49.873c-4.344,0-8.039-1.331-9.424-3.191c-0.377-0.507-0.584-1.053-0.584-1.623v3.245 c0,2.658,4.481,4.814,10.009,4.814s10.009-2.155,10.009-4.814v-3.245c0,0.569-0.207,1.115-0.584,1.623 C62.37,48.542,58.674,49.873,54.33,49.873z" fill="rgb(248, 178, 106)" style="fill: rgb(248, 178, 106);"></path></g></g></g></g></g><g class="ld ld-fade" style="transform-origin: 50px 50px 0px; animation-duration: 5.8s; animation-delay: -5.56447s; animation-direction: normal;"><path class="st4" d="M64.309,44.703c-0.379-2.492-4.7-4.458-9.978-4.458s-9.599,1.966-9.978,4.458 c-0.018,0.118-0.03,0.236-0.03,0.356c0,0.569,0.207,1.115,0.584,1.623c1.385,1.86,5.081,3.191,9.424,3.191s8.039-1.331,9.424-3.191 c0.377-0.507,0.584-1.053,0.584-1.623C64.339,44.939,64.327,44.821,64.309,44.703z" fill="rgb(245, 230, 200)" style="fill: rgb(245, 230, 200);"></path></g></g></g><g style="transform-origin: 50px 50px 0px;"><g><g style="transform-origin: 50px 50px 0px;"><g><g style="transform-origin: 50px 50px 0px;"><g><g class="ld ld-fade" style="transform-origin: 50px 50px 0px; animation-duration: 5.8s; animation-delay: -5.53503s; animation-direction: normal;"><path class="st22" d="M44.322,39.56v0.356c0-0.12,0.012-0.238,0.03-0.356H44.322z" fill="rgb(248, 178, 106)" style="fill: rgb(248, 178, 106);"></path></g></g></g><g style="transform-origin: 50px 50px 0px;"><g><g class="ld ld-fade" style="transform-origin: 50px 50px 0px; animation-duration: 5.8s; animation-delay: -5.50558s; animation-direction: normal;"><path class="st22" d="M64.309,39.56c0.018,0.118,0.03,0.236,0.03,0.356V39.56H64.309z" fill="rgb(248, 178, 106)" style="fill: rgb(248, 178, 106);"></path></g></g></g><g style="transform-origin: 50px 50px 0px;"><g><g class="ld ld-fade" style="transform-origin: 50px 50px 0px; animation-duration: 5.8s; animation-delay: -5.47614s; animation-direction: normal;"><path class="st22" d="M54.33,44.729c-4.344,0-8.039-1.331-9.424-3.191c-0.377-0.507-0.584-1.053-0.584-1.623v3.245 c0,2.658,4.481,4.814,10.009,4.814s10.009-2.155,10.009-4.814v-3.245c0,0.569-0.207,1.115-0.584,1.623 C62.37,43.398,58.674,44.729,54.33,44.729z" fill="rgb(248, 178, 106)" style="fill: rgb(248, 178, 106);"></path></g></g></g></g></g><g class="ld ld-fade" style="transform-origin: 50px 50px 0px; animation-duration: 5.8s; animation-delay: -5.4467s; animation-direction: normal;"><path class="st4" d="M64.309,39.56c-0.379-2.492-4.7-4.458-9.978-4.458s-9.599,1.966-9.978,4.458 c-0.018,0.118-0.03,0.236-0.03,0.356c0,0.569,0.207,1.115,0.584,1.623c1.385,1.86,5.081,3.191,9.424,3.191s8.039-1.331,9.424-3.191 c0.377-0.507,0.584-1.053,0.584-1.623C64.339,39.796,64.327,39.677,64.309,39.56z" fill="rgb(245, 230, 200)" style="fill: rgb(245, 230, 200);"></path></g></g></g><g style="transform-origin: 50px 50px 0px;"><g><g style="transform-origin: 50px 50px 0px;"><g><g style="transform-origin: 50px 50px 0px;"><g><g class="ld ld-fade" style="transform-origin: 50px 50px 0px; animation-duration: 5.8s; animation-delay: -5.41726s; animation-direction: normal;"><path class="st22" d="M30.36,57.62v0.395c0-0.133,0.014-0.265,0.033-0.395H30.36z" fill="rgb(248, 178, 106)" style="fill: rgb(248, 178, 106);"></path></g></g></g><g style="transform-origin: 50px 50px 0px;"><g><g class="ld ld-fade" style="transform-origin: 50px 50px 0px; animation-duration: 5.8s; animation-delay: -5.38782s; animation-direction: normal;"><path class="st22" d="M52.566,57.62c0.02,0.131,0.033,0.262,0.033,0.395V57.62H52.566z" fill="rgb(248, 178, 106)" style="fill: rgb(248, 178, 106);"></path></g></g></g><g style="transform-origin: 50px 50px 0px;"><g><g class="ld ld-fade" style="transform-origin: 50px 50px 0px; animation-duration: 5.8s; animation-delay: -5.35838s; animation-direction: normal;"><path class="st22" d="M41.48,63.364c-4.826,0-8.932-1.479-10.471-3.545c-0.419-0.563-0.649-1.17-0.649-1.803v3.605 c0,2.954,4.979,5.348,11.12,5.348s11.12-2.394,11.12-5.348v-3.605c0,0.633-0.23,1.239-0.649,1.803 C50.412,61.885,46.306,63.364,41.48,63.364z" fill="rgb(248, 178, 106)" style="fill: rgb(248, 178, 106);"></path></g></g></g></g></g><g class="ld ld-fade" style="transform-origin: 50px 50px 0px; animation-duration: 5.8s; animation-delay: -5.32893s; animation-direction: normal;"><path class="st4" d="M52.566,57.62c-0.421-2.769-5.222-4.953-11.087-4.953s-10.666,2.184-11.087,4.953 c-0.02,0.131-0.033,0.262-0.033,0.395c0,0.633,0.23,1.239,0.649,1.803c1.538,2.067,5.645,3.545,10.471,3.545 s8.932-1.479,10.471-3.545c0.419-0.563,0.649-1.17,0.649-1.803C52.6,57.882,52.586,57.751,52.566,57.62z" fill="rgb(245, 230, 200)" style="fill: rgb(245, 230, 200);"></path></g><g style="transform-origin: 50px 50px 0px;"><g><g style="transform-origin: 50px 50px 0px;"><g><g class="ld ld-fade" style="transform-origin: 50px 50px 0px; animation-duration: 5.8s; animation-delay: -5.29949s; animation-direction: normal;"><path class="st22" d="M30.36,57.62v0.395c0-0.133,0.014-0.265,0.033-0.395H30.36z" fill="rgb(248, 178, 106)" style="fill: rgb(248, 178, 106);"></path></g></g></g><g style="transform-origin: 50px 50px 0px;"><g><g class="ld ld-fade" style="transform-origin: 50px 50px 0px; animation-duration: 5.8s; animation-delay: -5.27005s; animation-direction: normal;"><path class="st22" d="M52.566,57.62c0.02,0.131,0.033,0.262,0.033,0.395V57.62H52.566z" fill="rgb(248, 178, 106)" style="fill: rgb(248, 178, 106);"></path></g></g></g><g style="transform-origin: 50px 50px 0px;"><g><g class="ld ld-fade" style="transform-origin: 50px 50px 0px; animation-duration: 5.8s; animation-delay: -5.24061s; animation-direction: normal;"><path class="st22" d="M41.48,63.364c-4.826,0-8.932-1.479-10.471-3.545c-0.419-0.563-0.649-1.17-0.649-1.803v3.605 c0,2.954,4.979,5.348,11.12,5.348s11.12-2.394,11.12-5.348v-3.605c0,0.633-0.23,1.239-0.649,1.803 C50.412,61.885,46.306,63.364,41.48,63.364z" fill="rgb(248, 178, 106)" style="fill: rgb(248, 178, 106);"></path></g></g></g></g></g><g class="ld ld-fade" style="transform-origin: 50px 50px 0px; animation-duration: 5.8s; animation-delay: -5.21117s; animation-direction: normal;"><path class="st4" d="M52.566,57.62c-0.421-2.769-5.222-4.953-11.087-4.953s-10.666,2.184-11.087,4.953 c-0.02,0.131-0.033,0.262-0.033,0.395c0,0.633,0.23,1.239,0.649,1.803c1.538,2.067,5.645,3.545,10.471,3.545 s8.932-1.479,10.471-3.545c0.419-0.563,0.649-1.17,0.649-1.803C52.6,57.882,52.586,57.751,52.566,57.62z" fill="rgb(245, 230, 200)" style="fill: rgb(245, 230, 200);"></path></g></g></g><g style="transform-origin: 50px 50px 0px;"><g><g style="transform-origin: 50px 50px 0px;"><g><g style="transform-origin: 50px 50px 0px;"><g><g class="ld ld-fade" style="transform-origin: 50px 50px 0px; animation-duration: 5.8s; animation-delay: -5.18173s; animation-direction: normal;"><path class="st22" d="M30.36,51.905v0.395c0-0.133,0.014-0.265,0.033-0.395H30.36z" fill="rgb(248, 178, 106)" style="fill: rgb(248, 178, 106);"></path></g></g></g><g style="transform-origin: 50px 50px 0px;"><g><g class="ld ld-fade" style="transform-origin: 50px 50px 0px; animation-duration: 5.8s; animation-delay: -5.15228s; animation-direction: normal;"><path class="st22" d="M52.566,51.905c0.02,0.131,0.033,0.262,0.033,0.395v-0.395H52.566z" fill="rgb(248, 178, 106)" style="fill: rgb(248, 178, 106);"></path></g></g></g><g style="transform-origin: 50px 50px 0px;"><g><g class="ld ld-fade" style="transform-origin: 50px 50px 0px; animation-duration: 5.8s; animation-delay: -5.12284s; animation-direction: normal;"><path class="st22" d="M41.48,57.649c-4.826,0-8.932-1.479-10.471-3.545c-0.419-0.563-0.649-1.17-0.649-1.803v3.605 c0,2.954,4.979,5.348,11.12,5.348S52.6,58.86,52.6,55.906v-3.605c0,0.633-0.23,1.239-0.649,1.803 C50.412,56.17,46.306,57.649,41.48,57.649z" fill="rgb(248, 178, 106)" style="fill: rgb(248, 178, 106);"></path></g></g></g></g></g><g class="ld ld-fade" style="transform-origin: 50px 50px 0px; animation-duration: 5.8s; animation-delay: -5.0934s; animation-direction: normal;"><path class="st4" d="M52.566,51.905c-0.421-2.769-5.222-4.953-11.087-4.953s-10.666,2.184-11.087,4.953 c-0.02,0.131-0.033,0.262-0.033,0.395c0,0.633,0.23,1.239,0.649,1.803c1.538,2.067,5.645,3.545,10.471,3.545 s8.932-1.479,10.471-3.545c0.419-0.563,0.649-1.17,0.649-1.803C52.6,52.168,52.586,52.036,52.566,51.905z" fill="rgb(245, 230, 200)" style="fill: rgb(245, 230, 200);"></path></g></g></g><g style="transform-origin: 50px 50px 0px;"><g><g style="transform-origin: 50px 50px 0px;"><g><g style="transform-origin: 50px 50px 0px;"><g><g class="ld ld-fade" style="transform-origin: 50px 50px 0px; animation-duration: 5.8s; animation-delay: -5.06396s; animation-direction: normal;"><path class="st22" d="M30.36,46.191v0.395c0-0.133,0.014-0.265,0.033-0.395H30.36z" fill="rgb(248, 178, 106)" style="fill: rgb(248, 178, 106);"></path></g></g></g><g style="transform-origin: 50px 50px 0px;"><g><g class="ld ld-fade" style="transform-origin: 50px 50px 0px; animation-duration: 5.8s; animation-delay: -5.03452s; animation-direction: normal;"><path class="st22" d="M52.566,46.191c0.02,0.131,0.033,0.262,0.033,0.395v-0.395H52.566z" fill="rgb(248, 178, 106)" style="fill: rgb(248, 178, 106);"></path></g></g></g><g style="transform-origin: 50px 50px 0px;"><g><g class="ld ld-fade" style="transform-origin: 50px 50px 0px; animation-duration: 5.8s; animation-delay: -5.00508s; animation-direction: normal;"><path class="st22" d="M41.48,51.934c-4.826,0-8.932-1.479-10.471-3.545c-0.419-0.563-0.649-1.17-0.649-1.803v3.605 c0,2.954,4.979,5.348,11.12,5.348s11.12-2.394,11.12-5.348v-3.605c0,0.633-0.23,1.239-0.649,1.803 C50.412,50.455,46.306,51.934,41.48,51.934z" fill="rgb(248, 178, 106)" style="fill: rgb(248, 178, 106);"></path></g></g></g></g></g><g class="ld ld-fade" style="transform-origin: 50px 50px 0px; animation-duration: 5.8s; animation-delay: -4.97563s; animation-direction: normal;"><path class="st4" d="M52.566,46.191c-0.421-2.769-5.222-4.953-11.087-4.953s-10.666,2.184-11.087,4.953 c-0.02,0.131-0.033,0.262-0.033,0.395c0,0.633,0.23,1.239,0.649,1.803c1.538,2.067,5.645,3.545,10.471,3.545 s8.932-1.479,10.471-3.545c0.419-0.563,0.649-1.17,0.649-1.803C52.6,46.453,52.586,46.321,52.566,46.191z" fill="rgb(245, 230, 200)" style="fill: rgb(245, 230, 200);"></path></g></g></g><g style="transform-origin: 50px 50px 0px;"><g><g style="transform-origin: 50px 50px 0px;"><g><g style="transform-origin: 50px 50px 0px;"><g><g class="ld ld-fade" style="transform-origin: 50px 50px 0px; animation-duration: 5.8s; animation-delay: -4.94619s; animation-direction: normal;"><path class="st22" d="M30.36,40.476v0.395c0-0.133,0.014-0.265,0.033-0.395H30.36z" fill="rgb(248, 178, 106)" style="fill: rgb(248, 178, 106);"></path></g></g></g><g style="transform-origin: 50px 50px 0px;"><g><g class="ld ld-fade" style="transform-origin: 50px 50px 0px; animation-duration: 5.8s; animation-delay: -4.91675s; animation-direction: normal;"><path class="st22" d="M52.566,40.476c0.02,0.131,0.033,0.262,0.033,0.395v-0.395H52.566z" fill="rgb(248, 178, 106)" style="fill: rgb(248, 178, 106);"></path></g></g></g><g style="transform-origin: 50px 50px 0px;"><g><g class="ld ld-fade" style="transform-origin: 50px 50px 0px; animation-duration: 5.8s; animation-delay: -4.88731s; animation-direction: normal;"><path class="st22" d="M41.48,46.219c-4.826,0-8.932-1.479-10.471-3.545c-0.419-0.563-0.649-1.17-0.649-1.803v3.605 c0,2.954,4.979,5.348,11.12,5.348S52.6,47.43,52.6,44.476v-3.605c0,0.633-0.23,1.239-0.649,1.803 C50.412,44.74,46.306,46.219,41.48,46.219z" fill="rgb(248, 178, 106)" style="fill: rgb(248, 178, 106);"></path></g></g></g></g></g><g class="ld ld-fade" style="transform-origin: 50px 50px 0px; animation-duration: 5.8s; animation-delay: -4.85787s; animation-direction: normal;"><path class="st4" d="M52.566,40.476c-0.421-2.769-5.222-4.953-11.087-4.953s-10.666,2.184-11.087,4.953 c-0.02,0.131-0.033,0.262-0.033,0.395c0,0.633,0.23,1.239,0.649,1.803c1.538,2.067,5.645,3.545,10.471,3.545 s8.932-1.479,10.471-3.545c0.419-0.563,0.649-1.17,0.649-1.803C52.6,40.738,52.586,40.606,52.566,40.476z" fill="rgb(245, 230, 200)" style="fill: rgb(245, 230, 200);"></path></g></g></g><g style="transform-origin: 50px 50px 0px;"><g><g style="transform-origin: 50px 50px 0px;"><g><g style="transform-origin: 50px 50px 0px;"><g><g class="ld ld-fade" style="transform-origin: 50px 50px 0px; animation-duration: 5.8s; animation-delay: -4.82843s; animation-direction: normal;"><path class="st22" d="M30.36,34.761v0.395c0-0.133,0.014-0.265,0.033-0.395H30.36z" fill="rgb(248, 178, 106)" style="fill: rgb(248, 178, 106);"></path></g></g></g><g style="transform-origin: 50px 50px 0px;"><g><g class="ld ld-fade" style="transform-origin: 50px 50px 0px; animation-duration: 5.8s; animation-delay: -4.79898s; animation-direction: normal;"><path class="st22" d="M52.566,34.761c0.02,0.131,0.033,0.262,0.033,0.395v-0.395H52.566z" fill="rgb(248, 178, 106)" style="fill: rgb(248, 178, 106);"></path></g></g></g><g style="transform-origin: 50px 50px 0px;"><g><g class="ld ld-fade" style="transform-origin: 50px 50px 0px; animation-duration: 5.8s; animation-delay: -4.76954s; animation-direction: normal;"><path class="st22" d="M41.48,40.504c-4.826,0-8.932-1.479-10.471-3.545c-0.419-0.563-0.649-1.17-0.649-1.803v3.605 c0,2.954,4.979,5.348,11.12,5.348s11.12-2.394,11.12-5.348v-3.605c0,0.633-0.23,1.239-0.649,1.803 C50.412,39.025,46.306,40.504,41.48,40.504z" fill="rgb(248, 178, 106)" style="fill: rgb(248, 178, 106);"></path></g></g></g></g></g><g class="ld ld-fade" style="transform-origin: 50px 50px 0px; animation-duration: 5.8s; animation-delay: -4.7401s; animation-direction: normal;"><path class="st4" d="M52.566,34.761c-0.421-2.769-5.222-4.953-11.087-4.953s-10.666,2.184-11.087,4.953 c-0.02,0.131-0.033,0.262-0.033,0.395c0,0.633,0.23,1.239,0.649,1.803c1.538,2.067,5.645,3.545,10.471,3.545 s8.932-1.479,10.471-3.545c0.419-0.563,0.649-1.17,0.649-1.803C52.6,35.023,52.586,34.892,52.566,34.761z" fill="rgb(245, 230, 200)" style="fill: rgb(245, 230, 200);"></path></g></g></g><g style="transform-origin: 50px 50px 0px;"><g><g style="transform-origin: 50px 50px 0px;"><g><g style="transform-origin: 50px 50px 0px;"><g><g class="ld ld-fade" style="transform-origin: 50px 50px 0px; animation-duration: 5.8s; animation-delay: -4.71066s; animation-direction: normal;"><path class="st22" d="M30.36,29.046v0.395c0-0.133,0.014-0.265,0.033-0.395H30.36z" fill="rgb(248, 178, 106)" style="fill: rgb(248, 178, 106);"></path></g></g></g><g style="transform-origin: 50px 50px 0px;"><g><g class="ld ld-fade" style="transform-origin: 50px 50px 0px; animation-duration: 5.8s; animation-delay: -4.68122s; animation-direction: normal;"><path class="st22" d="M52.566,29.046c0.02,0.131,0.033,0.262,0.033,0.395v-0.395H52.566z" fill="rgb(248, 178, 106)" style="fill: rgb(248, 178, 106);"></path></g></g></g><g style="transform-origin: 50px 50px 0px;"><g><g class="ld ld-fade" style="transform-origin: 50px 50px 0px; animation-duration: 5.8s; animation-delay: -4.65178s; animation-direction: normal;"><path class="st22" d="M41.48,34.79c-4.826,0-8.932-1.479-10.471-3.545c-0.419-0.563-0.649-1.17-0.649-1.803v3.605 c0,2.954,4.979,5.348,11.12,5.348S52.6,36,52.6,33.047v-3.605c0,0.633-0.23,1.239-0.649,1.803 C50.412,33.311,46.306,34.79,41.48,34.79z" fill="rgb(248, 178, 106)" style="fill: rgb(248, 178, 106);"></path></g></g></g></g></g><g class="ld ld-fade" style="transform-origin: 50px 50px 0px; animation-duration: 5.8s; animation-delay: -4.62234s; animation-direction: normal;"><path class="st4" d="M52.566,29.046c-0.421-2.769-5.222-4.953-11.087-4.953s-10.666,2.184-11.087,4.953 c-0.02,0.131-0.033,0.262-0.033,0.395c0,0.633,0.23,1.239,0.649,1.803c1.538,2.067,5.645,3.545,10.471,3.545 s8.932-1.479,10.471-3.545c0.419-0.563,0.649-1.17,0.649-1.803C52.6,29.308,52.586,29.177,52.566,29.046z" fill="rgb(245, 230, 200)" style="fill: rgb(245, 230, 200);"></path></g></g></g><g style="transform-origin: 50px 50px 0px;"><g><g style="transform-origin: 50px 50px 0px;"><g><g style="transform-origin: 50px 50px 0px;"><g><g class="ld ld-fade" style="transform-origin: 50px 50px 0px; animation-duration: 5.8s; animation-delay: -4.59289s; animation-direction: normal;"><path class="st22" d="M7.5,57.62v0.395c0-0.133,0.014-0.265,0.033-0.395H7.5z" fill="rgb(248, 178, 106)" style="fill: rgb(248, 178, 106);"></path></g></g></g><g style="transform-origin: 50px 50px 0px;"><g><g class="ld ld-fade" style="transform-origin: 50px 50px 0px; animation-duration: 5.8s; animation-delay: -4.56345s; animation-direction: normal;"><path class="st22" d="M29.707,57.62c0.02,0.131,0.033,0.262,0.033,0.395V57.62H29.707z" fill="rgb(248, 178, 106)" style="fill: rgb(248, 178, 106);"></path></g></g></g><g style="transform-origin: 50px 50px 0px;"><g><g class="ld ld-fade" style="transform-origin: 50px 50px 0px; animation-duration: 5.8s; animation-delay: -4.53401s; animation-direction: normal;"><path class="st22" d="M18.62,63.364c-4.826,0-8.932-1.479-10.471-3.545C7.73,59.255,7.5,58.648,7.5,58.015v3.605 c0,2.954,4.979,5.348,11.12,5.348s11.12-2.394,11.12-5.348v-3.605c0,0.633-0.23,1.239-0.649,1.803 C27.553,61.885,23.446,63.364,18.62,63.364z" fill="rgb(248, 178, 106)" style="fill: rgb(248, 178, 106);"></path></g></g></g></g></g><g class="ld ld-fade" style="transform-origin: 50px 50px 0px; animation-duration: 5.8s; animation-delay: -4.50457s; animation-direction: normal;"><path class="st4" d="M29.707,57.62c-0.421-2.769-5.222-4.953-11.087-4.953S7.955,54.851,7.534,57.62 C7.514,57.751,7.5,57.882,7.5,58.015c0,0.633,0.23,1.239,0.649,1.803c1.538,2.067,5.645,3.545,10.471,3.545 s8.932-1.479,10.471-3.545c0.419-0.563,0.649-1.17,0.649-1.803C29.74,57.882,29.727,57.751,29.707,57.62z" fill="rgb(245, 230, 200)" style="fill: rgb(245, 230, 200);"></path></g><g class="ld ld-fade" style="transform-origin: 50px 50px 0px; animation-duration: 5.8s; animation-delay: -4.47513s; animation-direction: normal;"><path class="st4" d="M29.707,57.62c-0.421-2.769-5.222-4.953-11.087-4.953S7.955,54.851,7.534,57.62 C7.514,57.751,7.5,57.882,7.5,58.015c0,0.633,0.23,1.239,0.649,1.803c1.538,2.067,5.645,3.545,10.471,3.545 s8.932-1.479,10.471-3.545c0.419-0.563,0.649-1.17,0.649-1.803C29.74,57.882,29.727,57.751,29.707,57.62z" fill="rgb(245, 230, 200)" style="fill: rgb(245, 230, 200);"></path></g></g></g><g style="transform-origin: 50px 50px 0px;"><g><g style="transform-origin: 50px 50px 0px;"><g><g style="transform-origin: 50px 50px 0px;"><g><g class="ld ld-fade" style="transform-origin: 50px 50px 0px; animation-duration: 5.8s; animation-delay: -4.44569s; animation-direction: normal;"><path class="st22" d="M7.5,51.905v0.395c0-0.133,0.014-0.265,0.033-0.395H7.5z" fill="rgb(248, 178, 106)" style="fill: rgb(248, 178, 106);"></path></g></g></g><g style="transform-origin: 50px 50px 0px;"><g><g class="ld ld-fade" style="transform-origin: 50px 50px 0px; animation-duration: 5.8s; animation-delay: -4.41624s; animation-direction: normal;"><path class="st22" d="M29.707,51.905c0.02,0.131,0.033,0.262,0.033,0.395v-0.395H29.707z" fill="rgb(248, 178, 106)" style="fill: rgb(248, 178, 106);"></path></g></g></g><g style="transform-origin: 50px 50px 0px;"><g><g class="ld ld-fade" style="transform-origin: 50px 50px 0px; animation-duration: 5.8s; animation-delay: -4.3868s; animation-direction: normal;"><path class="st22" d="M18.62,57.649c-4.826,0-8.932-1.479-10.471-3.545C7.73,53.54,7.5,52.933,7.5,52.301v3.605 c0,2.954,4.979,5.348,11.12,5.348s11.12-2.394,11.12-5.348v-3.605c0,0.633-0.23,1.239-0.649,1.803 C27.553,56.17,23.446,57.649,18.62,57.649z" fill="rgb(248, 178, 106)" style="fill: rgb(248, 178, 106);"></path></g></g></g></g></g><g class="ld ld-fade" style="transform-origin: 50px 50px 0px; animation-duration: 5.8s; animation-delay: -4.35736s; animation-direction: normal;"><path class="st4" d="M29.707,51.905c-0.421-2.769-5.222-4.953-11.087-4.953S7.955,49.136,7.534,51.905 C7.514,52.036,7.5,52.168,7.5,52.301c0,0.633,0.23,1.239,0.649,1.803c1.538,2.067,5.645,3.545,10.471,3.545 s8.932-1.479,10.471-3.545c0.419-0.563,0.649-1.17,0.649-1.803C29.74,52.168,29.727,52.036,29.707,51.905z" fill="rgb(245, 230, 200)" style="fill: rgb(245, 230, 200);"></path></g></g></g><g style="transform-origin: 50px 50px 0px;"><g><g style="transform-origin: 50px 50px 0px;"><g><g style="transform-origin: 50px 50px 0px;"><g><g class="ld ld-fade" style="transform-origin: 50px 50px 0px; animation-duration: 5.8s; animation-delay: -4.32792s; animation-direction: normal;"><path class="st22" d="M7.5,46.191v0.395c0-0.133,0.014-0.265,0.033-0.395H7.5z" fill="rgb(248, 178, 106)" style="fill: rgb(248, 178, 106);"></path></g></g></g><g style="transform-origin: 50px 50px 0px;"><g><g class="ld ld-fade" style="transform-origin: 50px 50px 0px; animation-duration: 5.8s; animation-delay: -4.29848s; animation-direction: normal;"><path class="st22" d="M29.707,46.191c0.02,0.131,0.033,0.262,0.033,0.395v-0.395H29.707z" fill="rgb(248, 178, 106)" style="fill: rgb(248, 178, 106);"></path></g></g></g><g style="transform-origin: 50px 50px 0px;"><g><g class="ld ld-fade" style="transform-origin: 50px 50px 0px; animation-duration: 5.8s; animation-delay: -4.26904s; animation-direction: normal;"><path class="st22" d="M18.62,51.934c-4.826,0-8.932-1.479-10.471-3.545C7.73,47.825,7.5,47.219,7.5,46.586v3.605 c0,2.954,4.979,5.348,11.12,5.348s11.12-2.394,11.12-5.348v-3.605c0,0.633-0.23,1.239-0.649,1.803 C27.553,50.455,23.446,51.934,18.62,51.934z" fill="rgb(248, 178, 106)" style="fill: rgb(248, 178, 106);"></path></g></g></g></g></g><g class="ld ld-fade" style="transform-origin: 50px 50px 0px; animation-duration: 5.8s; animation-delay: -4.23959s; animation-direction: normal;"><path class="st4" d="M29.707,46.191c-0.421-2.769-5.222-4.953-11.087-4.953S7.955,43.422,7.534,46.191 C7.514,46.321,7.5,46.453,7.5,46.586c0,0.633,0.23,1.239,0.649,1.803c1.538,2.067,5.645,3.545,10.471,3.545 s8.932-1.479,10.471-3.545c0.419-0.563,0.649-1.17,0.649-1.803C29.74,46.453,29.727,46.321,29.707,46.191z" fill="rgb(245, 230, 200)" style="fill: rgb(245, 230, 200);"></path></g></g></g><g style="transform-origin: 50px 50px 0px;"><g><g style="transform-origin: 50px 50px 0px;"><g><g style="transform-origin: 50px 50px 0px;"><g><g class="ld ld-fade" style="transform-origin: 50px 50px 0px; animation-duration: 5.8s; animation-delay: -4.21015s; animation-direction: normal;"><path class="st22" d="M7.5,40.476v0.395c0-0.133,0.014-0.265,0.033-0.395H7.5z" fill="rgb(248, 178, 106)" style="fill: rgb(248, 178, 106);"></path></g></g></g><g style="transform-origin: 50px 50px 0px;"><g><g class="ld ld-fade" style="transform-origin: 50px 50px 0px; animation-duration: 5.8s; animation-delay: -4.18071s; animation-direction: normal;"><path class="st22" d="M29.707,40.476c0.02,0.131,0.033,0.262,0.033,0.395v-0.395H29.707z" fill="rgb(248, 178, 106)" style="fill: rgb(248, 178, 106);"></path></g></g></g><g style="transform-origin: 50px 50px 0px;"><g><g class="ld ld-fade" style="transform-origin: 50px 50px 0px; animation-duration: 5.8s; animation-delay: -4.15127s; animation-direction: normal;"><path class="st22" d="M18.62,46.219c-4.826,0-8.932-1.479-10.471-3.545C7.73,42.11,7.5,41.504,7.5,40.871v3.605 c0,2.954,4.979,5.348,11.12,5.348s11.12-2.394,11.12-5.348v-3.605c0,0.633-0.23,1.239-0.649,1.803 C27.553,44.74,23.446,46.219,18.62,46.219z" fill="rgb(248, 178, 106)" style="fill: rgb(248, 178, 106);"></path></g></g></g></g></g><g class="ld ld-fade" style="transform-origin: 50px 50px 0px; animation-duration: 5.8s; animation-delay: -4.12183s; animation-direction: normal;"><path class="st4" d="M29.707,40.476c-0.421-2.769-5.222-4.953-11.087-4.953S7.955,37.707,7.534,40.476 C7.514,40.606,7.5,40.738,7.5,40.871c0,0.633,0.23,1.239,0.649,1.803c1.538,2.067,5.645,3.545,10.471,3.545 s8.932-1.479,10.471-3.545c0.419-0.563,0.649-1.17,0.649-1.803C29.74,40.738,29.727,40.606,29.707,40.476z" fill="rgb(245, 230, 200)" style="fill: rgb(245, 230, 200);"></path></g></g></g><g style="transform-origin: 50px 50px 0px;"><g><g style="transform-origin: 50px 50px 0px;"><g><g style="transform-origin: 50px 50px 0px;"><g><g class="ld ld-fade" style="transform-origin: 50px 50px 0px; animation-duration: 5.8s; animation-delay: -4.09239s; animation-direction: normal;"><path class="st22" d="M53.219,57.62v0.395c0-0.133,0.014-0.265,0.033-0.395H53.219z" fill="rgb(248, 178, 106)" style="fill: rgb(248, 178, 106);"></path></g></g></g><g style="transform-origin: 50px 50px 0px;"><g><g class="ld ld-fade" style="transform-origin: 50px 50px 0px; animation-duration: 5.8s; animation-delay: -4.06294s; animation-direction: normal;"><path class="st22" d="M75.426,57.62c0.02,0.131,0.033,0.262,0.033,0.395V57.62H75.426z" fill="rgb(248, 178, 106)" style="fill: rgb(248, 178, 106);"></path></g></g></g><g style="transform-origin: 50px 50px 0px;"><g><g class="ld ld-fade" style="transform-origin: 50px 50px 0px; animation-duration: 5.8s; animation-delay: -4.0335s; animation-direction: normal;"><path class="st22" d="M64.339,63.364c-4.826,0-8.932-1.479-10.471-3.545c-0.419-0.563-0.649-1.17-0.649-1.803v3.605 c0,2.954,4.979,5.348,11.12,5.348s11.12-2.394,11.12-5.348v-3.605c0,0.633-0.23,1.239-0.649,1.803 C73.271,61.885,69.165,63.364,64.339,63.364z" fill="rgb(248, 178, 106)" style="fill: rgb(248, 178, 106);"></path></g></g></g></g></g><g class="ld ld-fade" style="transform-origin: 50px 50px 0px; animation-duration: 5.8s; animation-delay: -4.00406s; animation-direction: normal;"><path class="st4" d="M75.426,57.62c-0.421-2.769-5.222-4.953-11.087-4.953s-10.666,2.184-11.087,4.953 c-0.02,0.131-0.033,0.262-0.033,0.395c0,0.633,0.23,1.239,0.649,1.803c1.538,2.067,5.645,3.545,10.471,3.545 s8.932-1.479,10.471-3.545c0.419-0.563,0.649-1.17,0.649-1.803C75.459,57.882,75.445,57.751,75.426,57.62z" fill="rgb(245, 230, 200)" style="fill: rgb(245, 230, 200);"></path></g><g style="transform-origin: 50px 50px 0px;"><g><g style="transform-origin: 50px 50px 0px;"><g><g class="ld ld-fade" style="transform-origin: 50px 50px 0px; animation-duration: 5.8s; animation-delay: -3.97462s; animation-direction: normal;"><path class="st22" d="M53.219,57.62v0.395c0-0.133,0.014-0.265,0.033-0.395H53.219z" fill="rgb(248, 178, 106)" style="fill: rgb(248, 178, 106);"></path></g></g></g><g style="transform-origin: 50px 50px 0px;"><g><g class="ld ld-fade" style="transform-origin: 50px 50px 0px; animation-duration: 5.8s; animation-delay: -3.94518s; animation-direction: normal;"><path class="st22" d="M75.426,57.62c0.02,0.131,0.033,0.262,0.033,0.395V57.62H75.426z" fill="rgb(248, 178, 106)" style="fill: rgb(248, 178, 106);"></path></g></g></g><g style="transform-origin: 50px 50px 0px;"><g><g class="ld ld-fade" style="transform-origin: 50px 50px 0px; animation-duration: 5.8s; animation-delay: -3.91574s; animation-direction: normal;"><path class="st22" d="M64.339,63.364c-4.826,0-8.932-1.479-10.471-3.545c-0.419-0.563-0.649-1.17-0.649-1.803v3.605 c0,2.954,4.979,5.348,11.12,5.348s11.12-2.394,11.12-5.348v-3.605c0,0.633-0.23,1.239-0.649,1.803 C73.271,61.885,69.165,63.364,64.339,63.364z" fill="rgb(248, 178, 106)" style="fill: rgb(248, 178, 106);"></path></g></g></g></g></g><g class="ld ld-fade" style="transform-origin: 50px 50px 0px; animation-duration: 5.8s; animation-delay: -3.88629s; animation-direction: normal;"><path class="st4" d="M75.426,57.62c-0.421-2.769-5.222-4.953-11.087-4.953s-10.666,2.184-11.087,4.953 c-0.02,0.131-0.033,0.262-0.033,0.395c0,0.633,0.23,1.239,0.649,1.803c1.538,2.067,5.645,3.545,10.471,3.545 s8.932-1.479,10.471-3.545c0.419-0.563,0.649-1.17,0.649-1.803C75.459,57.882,75.445,57.751,75.426,57.62z" fill="rgb(245, 230, 200)" style="fill: rgb(245, 230, 200);"></path></g></g></g><g style="transform-origin: 50px 50px 0px;"><g><g style="transform-origin: 50px 50px 0px;"><g><g style="transform-origin: 50px 50px 0px;"><g><g class="ld ld-fade" style="transform-origin: 50px 50px 0px; animation-duration: 5.8s; animation-delay: -3.85685s; animation-direction: normal;"><path class="st22" d="M53.219,51.905v0.395c0-0.133,0.014-0.265,0.033-0.395H53.219z" fill="rgb(248, 178, 106)" style="fill: rgb(248, 178, 106);"></path></g></g></g><g style="transform-origin: 50px 50px 0px;"><g><g class="ld ld-fade" style="transform-origin: 50px 50px 0px; animation-duration: 5.8s; animation-delay: -3.82741s; animation-direction: normal;"><path class="st22" d="M75.426,51.905c0.02,0.131,0.033,0.262,0.033,0.395v-0.395H75.426z" fill="rgb(248, 178, 106)" style="fill: rgb(248, 178, 106);"></path></g></g></g><g style="transform-origin: 50px 50px 0px;"><g><g class="ld ld-fade" style="transform-origin: 50px 50px 0px; animation-duration: 5.8s; animation-delay: -3.79797s; animation-direction: normal;"><path class="st22" d="M64.339,57.649c-4.826,0-8.932-1.479-10.471-3.545c-0.419-0.563-0.649-1.17-0.649-1.803v3.605 c0,2.954,4.979,5.348,11.12,5.348s11.12-2.394,11.12-5.348v-3.605c0,0.633-0.23,1.239-0.649,1.803 C73.271,56.17,69.165,57.649,64.339,57.649z" fill="rgb(248, 178, 106)" style="fill: rgb(248, 178, 106);"></path></g></g></g></g></g><g class="ld ld-fade" style="transform-origin: 50px 50px 0px; animation-duration: 5.8s; animation-delay: -3.76853s; animation-direction: normal;"><path class="st4" d="M75.426,51.905c-0.421-2.769-5.222-4.953-11.087-4.953s-10.666,2.184-11.087,4.953 c-0.02,0.131-0.033,0.262-0.033,0.395c0,0.633,0.23,1.239,0.649,1.803c1.538,2.067,5.645,3.545,10.471,3.545 s8.932-1.479,10.471-3.545c0.419-0.563,0.649-1.17,0.649-1.803C75.459,52.168,75.445,52.036,75.426,51.905z" fill="rgb(245, 230, 200)" style="fill: rgb(245, 230, 200);"></path></g></g></g><g style="transform-origin: 50px 50px 0px;"><g><g style="transform-origin: 50px 50px 0px;"><g><g style="transform-origin: 50px 50px 0px;"><g><g class="ld ld-fade" style="transform-origin: 50px 50px 0px; animation-duration: 5.8s; animation-delay: -3.73909s; animation-direction: normal;"><path class="st22" d="M72.468,50.912l-0.175,0.354c0.059-0.119,0.13-0.231,0.205-0.339L72.468,50.912z" fill="rgb(248, 178, 106)" style="fill: rgb(248, 178, 106);"></path></g></g></g><g style="transform-origin: 50px 50px 0px;"><g><g class="ld ld-fade" style="transform-origin: 50px 50px 0px; animation-duration: 5.8s; animation-delay: -3.70964s; animation-direction: normal;"><path class="st22" d="M92.367,60.769c-0.04,0.126-0.086,0.25-0.145,0.369l0.175-0.354L92.367,60.769z" fill="rgb(248, 178, 106)" style="fill: rgb(248, 178, 106);"></path></g></g></g><g style="transform-origin: 50px 50px 0px;"><g><g class="ld ld-fade" style="transform-origin: 50px 50px 0px; animation-duration: 5.8s; animation-delay: -3.6802s; animation-direction: normal;"><path class="st22" d="M79.883,60.994c-4.324-2.142-7.348-5.29-7.809-7.825c-0.126-0.691-0.062-1.337,0.218-1.904l-1.6,3.231 c-1.311,2.647,2.087,7.002,7.59,9.729c5.503,2.726,11.027,2.791,12.338,0.144l1.6-3.231c-0.281,0.567-0.756,1.008-1.382,1.327 C88.544,63.634,84.208,63.137,79.883,60.994z" fill="rgb(248, 178, 106)" style="fill: rgb(248, 178, 106);"></path></g></g></g></g></g><g class="ld ld-fade" style="transform-origin: 50px 50px 0px; animation-duration: 5.8s; animation-delay: -3.65076s; animation-direction: normal;"><path class="st4" d="M92.367,60.769c0.852-2.668-2.481-6.756-7.736-9.36c-5.255-2.603-10.527-2.777-12.133-0.483 c-0.076,0.108-0.146,0.22-0.205,0.339c-0.281,0.567-0.344,1.213-0.218,1.904c0.461,2.535,3.484,5.683,7.809,7.825 c4.324,2.142,8.661,2.64,10.956,1.471c0.626-0.319,1.101-0.76,1.382-1.327C92.281,61.019,92.327,60.895,92.367,60.769z" fill="rgb(245, 230, 200)" style="fill: rgb(245, 230, 200);"></path></g></g></g><g style="transform-origin: 50px 50px 0px;"><g><g style="transform-origin: 50px 50px 0px;"><g><g style="transform-origin: 50px 50px 0px;"><g><g class="ld ld-fade" style="transform-origin: 50px 50px 0px; animation-duration: 5.8s; animation-delay: -3.62132s; animation-direction: normal;"><path class="st22" d="M18.62,69.05v0.395c0-0.133,0.014-0.265,0.033-0.395H18.62z" fill="rgb(248, 178, 106)" style="fill: rgb(248, 178, 106);"></path></g></g></g><g style="transform-origin: 50px 50px 0px;"><g><g class="ld ld-fade" style="transform-origin: 50px 50px 0px; animation-duration: 5.8s; animation-delay: -3.59188s; animation-direction: normal;"><path class="st22" d="M40.827,69.05c0.02,0.131,0.033,0.262,0.033,0.395V69.05H40.827z" fill="rgb(248, 178, 106)" style="fill: rgb(248, 178, 106);"></path></g></g></g><g style="transform-origin: 50px 50px 0px;"><g><g class="ld ld-fade" style="transform-origin: 50px 50px 0px; animation-duration: 5.8s; animation-delay: -3.56244s; animation-direction: normal;"><path class="st22" d="M29.741,74.793c-4.826,0-8.932-1.479-10.471-3.545c-0.419-0.563-0.649-1.17-0.649-1.803v3.605 c0,2.954,4.979,5.348,11.12,5.348s11.12-2.394,11.12-5.348v-3.605c0,0.633-0.23,1.239-0.649,1.803 C38.673,73.314,34.566,74.793,29.741,74.793z" fill="rgb(248, 178, 106)" style="fill: rgb(248, 178, 106);"></path></g></g></g></g></g><g class="ld ld-fade" style="transform-origin: 50px 50px 0px; animation-duration: 5.8s; animation-delay: -3.53299s; animation-direction: normal;"><path class="st4" d="M40.827,69.05c-0.421-2.769-5.222-4.953-11.087-4.953s-10.666,2.184-11.087,4.953 c-0.02,0.131-0.033,0.262-0.033,0.395c0,0.633,0.23,1.239,0.649,1.803c1.538,2.067,5.645,3.545,10.471,3.545 s8.932-1.479,10.471-3.545c0.419-0.563,0.649-1.17,0.649-1.803C40.861,69.312,40.847,69.181,40.827,69.05z" fill="rgb(245, 230, 200)" style="fill: rgb(245, 230, 200);"></path></g></g></g><g style="transform-origin: 50px 50px 0px;"><g><g style="transform-origin: 50px 50px 0px;"><g><g style="transform-origin: 50px 50px 0px;"><g><g class="ld ld-fade" style="transform-origin: 50px 50px 0px; animation-duration: 5.8s; animation-delay: -3.50355s; animation-direction: normal;"><path class="st22" d="M15.371,37.745l0.276,0.283c-0.093-0.095-0.175-0.199-0.252-0.306L15.371,37.745z" fill="rgb(248, 178, 106)" style="fill: rgb(248, 178, 106);"></path></g></g></g><g style="transform-origin: 50px 50px 0px;"><g><g class="ld ld-fade" style="transform-origin: 50px 50px 0px; animation-duration: 5.8s; animation-delay: -3.47411s; animation-direction: normal;"><path class="st22" d="M31.263,22.233c0.105,0.08,0.207,0.164,0.3,0.26l-0.276-0.283L31.263,22.233z" fill="rgb(248, 178, 106)" style="fill: rgb(248, 178, 106);"></path></g></g></g><g style="transform-origin: 50px 50px 0px;"><g><g class="ld ld-fade" style="transform-origin: 50px 50px 0px; animation-duration: 5.8s; animation-delay: -3.44467s; animation-direction: normal;"><path class="st22" d="M27.341,34.087c-3.454,3.371-7.425,5.181-9.97,4.777c-0.694-0.11-1.282-0.384-1.724-0.836l2.518,2.58 c2.063,2.114,7.298,0.35,11.693-3.94s6.285-9.481,4.222-11.595l-2.518-2.58c0.442,0.453,0.701,1.048,0.795,1.744 C32.7,26.79,30.794,30.716,27.341,34.087z" fill="rgb(248, 178, 106)" style="fill: rgb(248, 178, 106);"></path></g></g></g></g></g><g class="ld ld-fade" style="transform-origin: 50px 50px 0px; animation-duration: 5.8s; animation-delay: -3.41523s; animation-direction: normal;"><path class="st4" d="M31.263,22.233c-2.235-1.687-7.196,0.103-11.393,4.2s-6.107,9.013-4.474,11.288 c0.077,0.107,0.159,0.211,0.252,0.306c0.442,0.453,1.03,0.726,1.724,0.836c2.544,0.404,6.516-1.406,9.97-4.777 s5.359-7.298,5.017-9.851c-0.093-0.696-0.353-1.291-0.795-1.744C31.47,22.397,31.368,22.313,31.263,22.233z" fill="rgb(245, 230, 200)" style="fill: rgb(245, 230, 200);"></path></g></g></g><g style="transform-origin: 50px 50px 0px;"><g><g style="transform-origin: 50px 50px 0px;"><g><g style="transform-origin: 50px 50px 0px;"><g><g class="ld ld-fade" style="transform-origin: 50px 50px 0px; animation-duration: 5.8s; animation-delay: -3.38579s; animation-direction: normal;"><path class="st22" d="M38.382,62.539l-0.175,0.354c0.059-0.119,0.13-0.231,0.205-0.339L38.382,62.539z" fill="rgb(248, 178, 106)" style="fill: rgb(248, 178, 106);"></path></g></g></g><g style="transform-origin: 50px 50px 0px;"><g><g class="ld ld-fade" style="transform-origin: 50px 50px 0px; animation-duration: 5.8s; animation-delay: -3.35635s; animation-direction: normal;"><path class="st22" d="M58.281,72.396c-0.04,0.126-0.086,0.25-0.145,0.369l0.175-0.354L58.281,72.396z" fill="rgb(248, 178, 106)" style="fill: rgb(248, 178, 106);"></path></g></g></g><g style="transform-origin: 50px 50px 0px;"><g><g class="ld ld-fade" style="transform-origin: 50px 50px 0px; animation-duration: 5.8s; animation-delay: -3.3269s; animation-direction: normal;"><path class="st22" d="M45.797,72.622c-4.324-2.142-7.348-5.29-7.809-7.825c-0.126-0.691-0.062-1.337,0.218-1.904l-1.6,3.231 c-1.311,2.647,2.087,7.002,7.59,9.729c5.503,2.726,11.027,2.791,12.338,0.144l1.6-3.231c-0.281,0.567-0.756,1.008-1.382,1.327 C54.458,75.262,50.121,74.764,45.797,72.622z" fill="rgb(248, 178, 106)" style="fill: rgb(248, 178, 106);"></path></g></g></g></g></g><g class="ld ld-fade" style="transform-origin: 50px 50px 0px; animation-duration: 5.8s; animation-delay: -3.29746s; animation-direction: normal;"><path class="st4" d="M58.281,72.396c0.852-2.668-2.481-6.756-7.736-9.36s-10.527-2.777-12.133-0.483 c-0.076,0.108-0.146,0.22-0.205,0.339c-0.281,0.567-0.344,1.213-0.218,1.904c0.461,2.535,3.484,5.683,7.809,7.825 c4.324,2.142,8.661,2.64,10.956,1.471c0.626-0.319,1.101-0.76,1.382-1.327C58.195,72.646,58.241,72.522,58.281,72.396z" fill="rgb(245, 230, 200)" style="fill: rgb(245, 230, 200);"></path></g></g></g><metadata xmlns:d="https://loading.io/stock/" class="ld ld-fade" style="transform-origin: 50px 50px 0px; animation-duration: 5.8s; animation-delay: -3.26802s; animation-direction: normal;">
<d:name class="ld ld-fade" style="transform-origin: 50px 50px 0px; animation-duration: 5.8s; animation-delay: -3.23858s; animation-direction: normal;">coin</d:name>
<d:tags class="ld ld-fade" style="transform-origin: 50px 50px 0px; animation-duration: 5.8s; animation-delay: -3.20914s; animation-direction: normal;">coin,buck,quarter,cent,penny,money,dollar</d:tags>
<d:license class="ld ld-fade" style="transform-origin: 50px 50px 0px; animation-duration: 5.8s; animation-delay: -3.1797s; animation-direction: normal;">cc-by</d:license>
<d:slug class="ld ld-fade" style="transform-origin: 50px 50px 0px; animation-duration: 5.8s; animation-delay: -3.15025s; animation-direction: normal;">1pz4o2</d:slug>
</metadata></g></g></g></g><style type="text/css" class="ld ld-fade" style="transform-origin: 50px 50px 0px; animation-duration: 5.8s; animation-delay: -3.12081s; animation-direction: normal;">@keyframes ld-fade {
  0% {
    opacity: 1;
  }
  100% {
    opacity: 0;
  }
}
@-webkit-keyframes ld-fade {
  0% {
    opacity: 1;
  }
  100% {
    opacity: 0;
  }
}
.ld.ld-fade {
  -webkit-animation: ld-fade 1s infinite linear;
  animation: ld-fade 1s infinite linear;
}
</style></svg></svg>