<?xml version="1.0" encoding="utf-8"?>
<svg xmlns="http://www.w3.org/2000/svg" style="margin: auto; background: rgb(241, 242, 243); display: block; shape-rendering: auto;" width="600" height="250" preserveAspectRatio="xMidYMid">
<style type="text/css">
  text {
    text-anchor: middle; font-size: 117px; opacity: 0;
  }
</style>
<g transform="translate(300,125)">
  <g transform="translate(0,0)"><g class="path" style="transform-origin: -253.19px -7.86241px; transform: scale(1); animation: 1s linear -0.605s infinite normal forwards running beat-4dc2fbbe-358c-440d-8ea3-1a7663b6f931;"><path d="M32.76-18.72L42.12-18.72L42.12-18.72Q42.59-16.85 42.59-14.04L42.59-14.04L42.59-14.04Q42.59-11.35 42.12-9.36L42.12-9.36L37.44-9.36L37.44-9.36Q37.91-7.49 37.91-4.68L37.91-4.68L37.91-4.68Q37.91-1.99 37.44 0L37.44 0L14.04 0L14.04 0Q13.57-1.99 13.57-4.68L13.57-4.68L13.57-4.68Q13.57-7.49 14.04-9.36L14.04-9.36L9.36-9.36L9.36-9.36Q8.89-11.35 8.89-14.04L8.89-14.04L8.89-14.04Q8.89-16.85 9.36-18.72L9.36-18.72L4.68-18.72L4.68-18.72Q4.21-20.71 4.21-23.40L4.21-23.40L4.21-23.40Q4.21-26.21 4.68-28.08L4.68-28.08L4.68-28.08Q4.21-30.07 4.21-32.76L4.21-32.76L4.21-32.76Q4.21-35.57 4.68-37.44L4.68-37.44L4.68-37.44Q4.21-39.43 4.21-42.12L4.21-42.12L4.21-42.12Q4.21-44.93 4.68-46.80L4.68-46.80L9.36-46.80L9.36-46.80Q8.89-48.79 8.89-51.48L8.89-51.48L8.89-51.48Q8.89-54.29 9.36-56.16L9.36-56.16L14.04-56.16L14.04-56.16Q13.57-58.15 13.57-60.84L13.57-60.84L13.57-60.84Q13.57-63.65 14.04-65.52L14.04-65.52L37.44-65.52L37.44-65.52Q37.91-63.65 37.91-60.84L37.91-60.84L37.91-60.84Q37.91-58.15 37.44-56.16L37.44-56.16L42.12-56.16L42.12-56.16Q42.59-54.29 42.59-51.48L42.59-51.48L42.59-51.48Q42.59-48.79 42.12-46.80L42.12-46.80L32.76-46.80L32.76-46.80Q32.29-48.79 32.29-51.48L32.29-51.48L32.29-51.48Q32.29-54.29 32.76-56.16L32.76-56.16L18.72-56.16L18.72-56.16Q19.19-54.29 19.19-51.48L19.19-51.48L19.19-51.48Q19.19-48.79 18.72-46.80L18.72-46.80L14.04-46.80L14.04-46.80Q14.51-44.93 14.51-42.12L14.51-42.12L14.51-42.12Q14.51-39.43 14.04-37.44L14.04-37.44L14.04-37.44Q14.51-35.57 14.51-32.76L14.51-32.76L14.51-32.76Q14.51-30.07 14.04-28.08L14.04-28.08L14.04-28.08Q14.51-26.21 14.51-23.40L14.51-23.40L14.51-23.40Q14.51-20.71 14.04-18.72L14.04-18.72L18.72-18.72L18.72-18.72Q19.19-16.85 19.19-14.04L19.19-14.04L19.19-14.04Q19.19-11.35 18.72-9.36L18.72-9.36L32.76-9.36L32.76-9.36Q32.29-11.35 32.29-14.04L32.29-14.04L32.29-14.04Q32.29-16.85 32.76-18.72L32.76-18.72" fill="#979797" stroke="none" stroke-width="none" transform="translate(-276.5899963378906,24.897595825195314)" style="fill: rgb(106, 106, 106);"></path></g><g class="path" style="transform-origin: -206.39px -7.86241px; transform: scale(1); animation: 1s linear -0.55s infinite normal forwards running beat-4dc2fbbe-358c-440d-8ea3-1a7663b6f931;"><path d="M85.41-9.36L88.92-9.36L88.92-9.36Q89.39-7.49 89.39-4.68L89.39-4.68L89.39-4.68Q89.39-1.99 88.92 0L88.92 0L79.56 0L79.56 0Q79.09-1.99 79.09-4.68L79.09-4.68L79.09-4.68Q79.09-7.49 79.56-9.36L79.56-9.36L76.05-9.36L76.05-9.36Q75.58-11.35 75.58-14.04L75.58-14.04L75.58-14.04Q75.58-16.85 76.05-18.72L76.05-18.72L72.54-18.72L72.54-18.72Q72.07-20.71 72.07-23.40L72.07-23.40L72.07-23.40Q72.07-26.21 72.54-28.08L72.54-28.08L60.84-28.08L60.84-28.08Q61.31-26.21 61.31-23.40L61.31-23.40L61.31-23.40Q61.31-20.71 60.84-18.72L60.84-18.72L60.84-18.72Q61.31-16.85 61.31-14.04L61.31-14.04L61.31-14.04Q61.31-11.35 60.84-9.36L60.84-9.36L60.84-9.36Q61.31-7.49 61.31-4.68L61.31-4.68L61.31-4.68Q61.31-1.99 60.84 0L60.84 0L51.48 0L51.48 0Q51.01-1.99 51.01-4.68L51.01-4.68L51.01-4.68Q51.01-7.49 51.48-9.36L51.48-9.36L51.48-9.36Q51.01-11.35 51.01-14.04L51.01-14.04L51.01-14.04Q51.01-16.85 51.48-18.72L51.48-18.72L51.48-18.72Q51.01-20.71 51.01-23.40L51.01-23.40L51.01-23.40Q51.01-26.21 51.48-28.08L51.48-28.08L51.48-28.08Q51.01-30.07 51.01-32.76L51.01-32.76L51.01-32.76Q51.01-35.57 51.48-37.44L51.48-37.44L51.48-37.44Q51.01-39.43 51.01-42.12L51.01-42.12L51.01-42.12Q51.01-44.93 51.48-46.80L51.48-46.80L51.48-46.80Q51.01-48.79 51.01-51.48L51.01-51.48L51.01-51.48Q51.01-54.29 51.48-56.16L51.48-56.16L51.48-56.16Q51.01-58.15 51.01-60.84L51.01-60.84L51.01-60.84Q51.01-63.65 51.48-65.52L51.48-65.52L84.24-65.52L84.24-65.52Q84.71-63.65 84.71-60.84L84.71-60.84L84.71-60.84Q84.71-58.15 84.24-56.16L84.24-56.16L88.92-56.16L88.92-56.16Q89.39-54.29 89.39-51.48L89.39-51.48L89.39-51.48Q89.39-48.79 88.92-46.80L88.92-46.80L86.58-46.80L86.58-46.80Q87.05-44.93 87.05-42.12L87.05-42.12L87.05-42.12Q87.05-39.43 86.58-37.44L86.58-37.44L79.56-37.44L79.56-37.44Q80.03-35.57 80.03-32.76L80.03-32.76L80.03-32.76Q80.03-30.07 79.56-28.08L79.56-28.08L81.90-28.08L81.90-28.08Q82.37-26.21 82.37-23.40L82.37-23.40L82.37-23.40Q82.37-20.71 81.90-18.72L81.90-18.72L85.41-18.72L85.41-18.72Q85.88-16.85 85.88-14.04L85.88-14.04L85.88-14.04Q85.88-11.35 85.41-9.36L85.41-9.36zM77.22-37.44L77.22-37.44Q76.75-39.43 76.75-42.12L76.75-42.12L76.75-42.12Q76.75-44.93 77.22-46.80L77.22-46.80L77.22-46.80Q76.75-48.79 76.75-51.48L76.75-51.48L76.75-51.48Q76.75-54.29 77.22-56.16L77.22-56.16L60.84-56.16L60.84-56.16Q61.31-54.29 61.31-51.48L61.31-51.48L61.31-51.48Q61.31-48.79 60.84-46.80L60.84-46.80L60.84-46.80Q61.31-44.93 61.31-42.12L61.31-42.12L61.31-42.12Q61.31-39.43 60.84-37.44L60.84-37.44L77.22-37.44" fill="#979797" stroke="none" stroke-width="none" transform="translate(-276.5899963378906,24.897595825195314)" style="fill: rgb(151, 151, 151);"></path></g><g class="path" style="transform-origin: -159.59px -7.86241px; transform: scale(1); animation: 1s linear -0.495s infinite normal forwards running beat-4dc2fbbe-358c-440d-8ea3-1a7663b6f931;"><path d="M136.19-60.84L136.19-60.84Q136.19-58.15 135.72-56.16L135.72-56.16L135.72-56.16Q136.19-54.29 136.19-51.48L136.19-51.48L136.19-51.48Q136.19-48.79 135.72-46.80L135.72-46.80L131.04-46.80L131.04-46.80Q131.51-44.93 131.51-42.12L131.51-42.12L131.51-42.12Q131.51-39.43 131.04-37.44L131.04-37.44L126.36-37.44L126.36-37.44Q126.83-35.57 126.83-32.76L126.83-32.76L126.83-32.76Q126.83-30.07 126.36-28.08L126.36-28.08L121.68-28.08L121.68-28.08Q122.15-26.21 122.15-23.40L122.15-23.40L122.15-23.40Q122.15-20.71 121.68-18.72L121.68-18.72L121.68-18.72Q122.15-16.85 122.15-14.04L122.15-14.04L122.15-14.04Q122.15-11.35 121.68-9.36L121.68-9.36L121.68-9.36Q122.15-7.49 122.15-4.68L122.15-4.68L122.15-4.68Q122.15-1.99 121.68 0L121.68 0L112.32 0L112.32 0Q111.85-1.99 111.85-4.68L111.85-4.68L111.85-4.68Q111.85-7.49 112.32-9.36L112.32-9.36L112.32-9.36Q111.85-11.35 111.85-14.04L111.85-14.04L111.85-14.04Q111.85-16.85 112.32-18.72L112.32-18.72L112.32-18.72Q111.85-20.71 111.85-23.40L111.85-23.40L111.85-23.40Q111.85-26.21 112.32-28.08L112.32-28.08L107.64-28.08L107.64-28.08Q107.17-30.07 107.17-32.76L107.17-32.76L107.17-32.76Q107.17-35.57 107.64-37.44L107.64-37.44L102.96-37.44L102.96-37.44Q102.49-39.43 102.49-42.12L102.49-42.12L102.49-42.12Q102.49-44.93 102.96-46.80L102.96-46.80L98.28-46.80L98.28-46.80Q97.81-48.79 97.81-51.48L97.81-51.48L97.81-51.48Q97.81-54.29 98.28-56.16L98.28-56.16L98.28-56.16Q97.81-58.15 97.81-60.84L97.81-60.84L97.81-60.84Q97.81-63.65 98.28-65.52L98.28-65.52L107.64-65.52L107.64-65.52Q108.11-63.65 108.11-60.84L108.11-60.84L108.11-60.84Q108.11-58.15 107.64-56.16L107.64-56.16L107.64-56.16Q108.11-54.29 108.11-51.48L108.11-51.48L108.11-51.48Q108.11-48.79 107.64-46.80L107.64-46.80L112.32-46.80L112.32-46.80Q112.79-44.93 112.79-42.12L112.79-42.12L112.79-42.12Q112.79-39.43 112.32-37.44L112.32-37.44L121.68-37.44L121.68-37.44Q121.21-39.43 121.21-42.12L121.21-42.12L121.21-42.12Q121.21-44.93 121.68-46.80L121.68-46.80L126.36-46.80L126.36-46.80Q125.89-48.79 125.89-51.48L125.89-51.48L125.89-51.48Q125.89-54.29 126.36-56.16L126.36-56.16L126.36-56.16Q125.89-58.15 125.89-60.84L125.89-60.84L125.89-60.84Q125.89-63.65 126.36-65.52L126.36-65.52L135.72-65.52L135.72-65.52Q136.19-63.65 136.19-60.84L136.19-60.84" fill="#979797" stroke="none" stroke-width="none" transform="translate(-276.5899963378906,24.897595825195314)" style="fill: rgb(189, 189, 189);"></path></g><g class="path" style="transform-origin: -112.79px -7.86241px; transform: scale(1); animation: 1s linear -0.44s infinite normal forwards running beat-4dc2fbbe-358c-440d-8ea3-1a7663b6f931;"><path d="M182.99-51.48L182.99-51.48Q182.99-48.79 182.52-46.80L182.52-46.80L182.52-46.80Q182.99-44.93 182.99-42.12L182.99-42.12L182.99-42.12Q182.99-39.43 182.52-37.44L182.52-37.44L177.84-37.44L177.84-37.44Q178.31-35.57 178.31-32.76L178.31-32.76L178.31-32.76Q178.31-30.07 177.84-28.08L177.84-28.08L154.44-28.08L154.44-28.08Q154.91-26.21 154.91-23.40L154.91-23.40L154.91-23.40Q154.91-20.71 154.44-18.72L154.44-18.72L154.44-18.72Q154.91-16.85 154.91-14.04L154.91-14.04L154.91-14.04Q154.91-11.35 154.44-9.36L154.44-9.36L154.44-9.36Q154.91-7.49 154.91-4.68L154.91-4.68L154.91-4.68Q154.91-1.99 154.44 0L154.44 0L145.08 0L145.08 0Q144.61-1.99 144.61-4.68L144.61-4.68L144.61-4.68Q144.61-7.49 145.08-9.36L145.08-9.36L145.08-9.36Q144.61-11.35 144.61-14.04L144.61-14.04L144.61-14.04Q144.61-16.85 145.08-18.72L145.08-18.72L145.08-18.72Q144.61-20.71 144.61-23.40L144.61-23.40L144.61-23.40Q144.61-26.21 145.08-28.08L145.08-28.08L145.08-28.08Q144.61-30.07 144.61-32.76L144.61-32.76L144.61-32.76Q144.61-35.57 145.08-37.44L145.08-37.44L145.08-37.44Q144.61-39.43 144.61-42.12L144.61-42.12L144.61-42.12Q144.61-44.93 145.08-46.80L145.08-46.80L145.08-46.80Q144.61-48.79 144.61-51.48L144.61-51.48L144.61-51.48Q144.61-54.29 145.08-56.16L145.08-56.16L145.08-56.16Q144.61-58.15 144.61-60.84L144.61-60.84L144.61-60.84Q144.61-63.65 145.08-65.52L145.08-65.52L177.84-65.52L177.84-65.52Q178.31-63.65 178.31-60.84L178.31-60.84L178.31-60.84Q178.31-58.15 177.84-56.16L177.84-56.16L182.52-56.16L182.52-56.16Q182.99-54.29 182.99-51.48L182.99-51.48zM173.16-37.44L173.16-37.44Q172.69-39.43 172.69-42.12L172.69-42.12L172.69-42.12Q172.69-44.93 173.16-46.80L173.16-46.80L173.16-46.80Q172.69-48.79 172.69-51.48L172.69-51.48L172.69-51.48Q172.69-54.29 173.16-56.16L173.16-56.16L154.44-56.16L154.44-56.16Q154.91-54.29 154.91-51.48L154.91-51.48L154.91-51.48Q154.91-48.79 154.44-46.80L154.44-46.80L154.44-46.80Q154.91-44.93 154.91-42.12L154.91-42.12L154.91-42.12Q154.91-39.43 154.44-37.44L154.44-37.44L173.16-37.44" fill="#979797" stroke="none" stroke-width="none" transform="translate(-276.5899963378906,24.897595825195314)" style="fill: rgb(226, 226, 226);"></path></g><g class="path" style="transform-origin: -65.99px -7.86241px; transform: scale(1); animation: 1s linear -0.385s infinite normal forwards running beat-4dc2fbbe-358c-440d-8ea3-1a7663b6f931;"><path d="M229.79-60.84L229.79-60.84Q229.79-58.15 229.32-56.16L229.32-56.16L215.28-56.16L215.28-56.16Q215.75-54.29 215.75-51.48L215.75-51.48L215.75-51.48Q215.75-48.79 215.28-46.80L215.28-46.80L215.28-46.80Q215.75-44.93 215.75-42.12L215.75-42.12L215.75-42.12Q215.75-39.43 215.28-37.44L215.28-37.44L215.28-37.44Q215.75-35.57 215.75-32.76L215.75-32.76L215.75-32.76Q215.75-30.07 215.28-28.08L215.28-28.08L215.28-28.08Q215.75-26.21 215.75-23.40L215.75-23.40L215.75-23.40Q215.75-20.71 215.28-18.72L215.28-18.72L215.28-18.72Q215.75-16.85 215.75-14.04L215.75-14.04L215.75-14.04Q215.75-11.35 215.28-9.36L215.28-9.36L215.28-9.36Q215.75-7.49 215.75-4.68L215.75-4.68L215.75-4.68Q215.75-1.99 215.28 0L215.28 0L205.92 0L205.92 0Q205.45-1.99 205.45-4.68L205.45-4.68L205.45-4.68Q205.45-7.49 205.92-9.36L205.92-9.36L205.92-9.36Q205.45-11.35 205.45-14.04L205.45-14.04L205.45-14.04Q205.45-16.85 205.92-18.72L205.92-18.72L205.92-18.72Q205.45-20.71 205.45-23.40L205.45-23.40L205.45-23.40Q205.45-26.21 205.92-28.08L205.92-28.08L205.92-28.08Q205.45-30.07 205.45-32.76L205.45-32.76L205.45-32.76Q205.45-35.57 205.92-37.44L205.92-37.44L205.92-37.44Q205.45-39.43 205.45-42.12L205.45-42.12L205.45-42.12Q205.45-44.93 205.92-46.80L205.92-46.80L205.92-46.80Q205.45-48.79 205.45-51.48L205.45-51.48L205.45-51.48Q205.45-54.29 205.92-56.16L205.92-56.16L191.88-56.16L191.88-56.16Q191.41-58.15 191.41-60.84L191.41-60.84L191.41-60.84Q191.41-63.65 191.88-65.52L191.88-65.52L229.32-65.52L229.32-65.52Q229.79-63.65 229.79-60.84L229.79-60.84" fill="#979797" stroke="none" stroke-width="none" transform="translate(-276.5899963378906,24.897595825195314)" style="fill: rgb(248, 248, 248);"></path></g><g class="path" style="transform-origin: -19.19px -7.86241px; transform: scale(1); animation: 1s linear -0.33s infinite normal forwards running beat-4dc2fbbe-358c-440d-8ea3-1a7663b6f931;"><path d="M276.12-37.44L276.12-37.44Q276.59-35.57 276.59-32.76L276.59-32.76L276.59-32.76Q276.59-30.07 276.12-28.08L276.12-28.08L276.12-28.08Q276.59-26.21 276.59-23.40L276.59-23.40L276.59-23.40Q276.59-20.71 276.12-18.72L276.12-18.72L272.61-18.72L272.61-18.72Q273.08-16.85 273.08-14.04L273.08-14.04L273.08-14.04Q273.08-11.35 272.61-9.36L272.61-9.36L266.76-9.36L266.76-9.36Q267.23-7.49 267.23-4.68L267.23-4.68L267.23-4.68Q267.23-1.99 266.76 0L266.76 0L248.04 0L248.04 0Q247.57-1.99 247.57-4.68L247.57-4.68L247.57-4.68Q247.57-7.49 248.04-9.36L248.04-9.36L242.19-9.36L242.19-9.36Q241.72-11.35 241.72-14.04L241.72-14.04L241.72-14.04Q241.72-16.85 242.19-18.72L242.19-18.72L238.68-18.72L238.68-18.72Q238.21-20.71 238.21-23.40L238.21-23.40L238.21-23.40Q238.21-26.21 238.68-28.08L238.68-28.08L238.68-28.08Q238.21-30.07 238.21-32.76L238.21-32.76L238.21-32.76Q238.21-35.57 238.68-37.44L238.68-37.44L238.68-37.44Q238.21-39.43 238.21-42.12L238.21-42.12L238.21-42.12Q238.21-44.93 238.68-46.80L238.68-46.80L242.19-46.80L242.19-46.80Q241.72-48.79 241.72-51.48L241.72-51.48L241.72-51.48Q241.72-54.29 242.19-56.16L242.19-56.16L248.04-56.16L248.04-56.16Q247.57-58.15 247.57-60.84L247.57-60.84L247.57-60.84Q247.57-63.65 248.04-65.52L248.04-65.52L266.76-65.52L266.76-65.52Q267.23-63.65 267.23-60.84L267.23-60.84L267.23-60.84Q267.23-58.15 266.76-56.16L266.76-56.16L272.61-56.16L272.61-56.16Q273.08-54.29 273.08-51.48L273.08-51.48L273.08-51.48Q273.08-48.79 272.61-46.80L272.61-46.80L276.12-46.80L276.12-46.80Q276.59-44.93 276.59-42.12L276.59-42.12L276.59-42.12Q276.59-39.43 276.12-37.44L276.12-37.44zM266.76-18.72L266.76-18.72Q266.29-20.71 266.29-23.40L266.29-23.40L266.29-23.40Q266.29-26.21 266.76-28.08L266.76-28.08L266.76-28.08Q266.29-30.07 266.29-32.76L266.29-32.76L266.29-32.76Q266.29-35.57 266.76-37.44L266.76-37.44L266.76-37.44Q266.29-39.43 266.29-42.12L266.29-42.12L266.29-42.12Q266.29-44.93 266.76-46.80L266.76-46.80L263.25-46.80L263.25-46.80Q262.78-48.79 262.78-51.48L262.78-51.48L262.78-51.48Q262.78-54.29 263.25-56.16L263.25-56.16L251.55-56.16L251.55-56.16Q252.02-54.29 252.02-51.48L252.02-51.48L252.02-51.48Q252.02-48.79 251.55-46.80L251.55-46.80L248.04-46.80L248.04-46.80Q248.51-44.93 248.51-42.12L248.51-42.12L248.51-42.12Q248.51-39.43 248.04-37.44L248.04-37.44L248.04-37.44Q248.51-35.57 248.51-32.76L248.51-32.76L248.51-32.76Q248.51-30.07 248.04-28.08L248.04-28.08L248.04-28.08Q248.51-26.21 248.51-23.40L248.51-23.40L248.51-23.40Q248.51-20.71 248.04-18.72L248.04-18.72L251.55-18.72L251.55-18.72Q252.02-16.85 252.02-14.04L252.02-14.04L252.02-14.04Q252.02-11.35 251.55-9.36L251.55-9.36L263.25-9.36L263.25-9.36Q262.78-11.35 262.78-14.04L262.78-14.04L262.78-14.04Q262.78-16.85 263.25-18.72L263.25-18.72L266.76-18.72" fill="#979797" stroke="none" stroke-width="none" transform="translate(-276.5899963378906,24.897595825195314)" style="fill: rgb(106, 106, 106);"></path></g><g class="path" style="transform-origin: 27.61px -7.86241px; transform: scale(1); animation: 1s linear -0.275s infinite normal forwards running beat-4dc2fbbe-358c-440d-8ea3-1a7663b6f931;"><path d="M323.39-60.84L323.39-60.84Q323.39-58.15 322.92-56.16L322.92-56.16L308.88-56.16L308.88-56.16Q309.35-54.29 309.35-51.48L309.35-51.48L309.35-51.48Q309.35-48.79 308.88-46.80L308.88-46.80L308.88-46.80Q309.35-44.93 309.35-42.12L309.35-42.12L309.35-42.12Q309.35-39.43 308.88-37.44L308.88-37.44L308.88-37.44Q309.35-35.57 309.35-32.76L309.35-32.76L309.35-32.76Q309.35-30.07 308.88-28.08L308.88-28.08L308.88-28.08Q309.35-26.21 309.35-23.40L309.35-23.40L309.35-23.40Q309.35-20.71 308.88-18.72L308.88-18.72L308.88-18.72Q309.35-16.85 309.35-14.04L309.35-14.04L309.35-14.04Q309.35-11.35 308.88-9.36L308.88-9.36L308.88-9.36Q309.35-7.49 309.35-4.68L309.35-4.68L309.35-4.68Q309.35-1.99 308.88 0L308.88 0L299.52 0L299.52 0Q299.05-1.99 299.05-4.68L299.05-4.68L299.05-4.68Q299.05-7.49 299.52-9.36L299.52-9.36L299.52-9.36Q299.05-11.35 299.05-14.04L299.05-14.04L299.05-14.04Q299.05-16.85 299.52-18.72L299.52-18.72L299.52-18.72Q299.05-20.71 299.05-23.40L299.05-23.40L299.05-23.40Q299.05-26.21 299.52-28.08L299.52-28.08L299.52-28.08Q299.05-30.07 299.05-32.76L299.05-32.76L299.05-32.76Q299.05-35.57 299.52-37.44L299.52-37.44L299.52-37.44Q299.05-39.43 299.05-42.12L299.05-42.12L299.05-42.12Q299.05-44.93 299.52-46.80L299.52-46.80L299.52-46.80Q299.05-48.79 299.05-51.48L299.05-51.48L299.05-51.48Q299.05-54.29 299.52-56.16L299.52-56.16L285.48-56.16L285.48-56.16Q285.01-58.15 285.01-60.84L285.01-60.84L285.01-60.84Q285.01-63.65 285.48-65.52L285.48-65.52L322.92-65.52L322.92-65.52Q323.39-63.65 323.39-60.84L323.39-60.84" fill="#979797" stroke="none" stroke-width="none" transform="translate(-276.5899963378906,24.897595825195314)" style="fill: rgb(151, 151, 151);"></path></g><g class="path" style="transform-origin: 74.41px -7.86241px; transform: scale(1); animation: 1s linear -0.22s infinite normal forwards running beat-4dc2fbbe-358c-440d-8ea3-1a7663b6f931;"><path d="M355.68-9.36L362.70-9.36L362.70-9.36Q363.17-7.49 363.17-4.68L363.17-4.68L363.17-4.68Q363.17-1.99 362.70 0L362.70 0L339.30 0L339.30 0Q338.83-1.99 338.83-4.68L338.83-4.68L338.83-4.68Q338.83-7.49 339.30-9.36L339.30-9.36L346.32-9.36L346.32-9.36Q345.85-11.35 345.85-14.04L345.85-14.04L345.85-14.04Q345.85-16.85 346.32-18.72L346.32-18.72L346.32-18.72Q345.85-20.71 345.85-23.40L345.85-23.40L345.85-23.40Q345.85-26.21 346.32-28.08L346.32-28.08L346.32-28.08Q345.85-30.07 345.85-32.76L345.85-32.76L345.85-32.76Q345.85-35.57 346.32-37.44L346.32-37.44L346.32-37.44Q345.85-39.43 345.85-42.12L345.85-42.12L345.85-42.12Q345.85-44.93 346.32-46.80L346.32-46.80L346.32-46.80Q345.85-48.79 345.85-51.48L345.85-51.48L345.85-51.48Q345.85-54.29 346.32-56.16L346.32-56.16L339.30-56.16L339.30-56.16Q338.83-58.15 338.83-60.84L338.83-60.84L338.83-60.84Q338.83-63.65 339.30-65.52L339.30-65.52L362.70-65.52L362.70-65.52Q363.17-63.65 363.17-60.84L363.17-60.84L363.17-60.84Q363.17-58.15 362.70-56.16L362.70-56.16L355.68-56.16L355.68-56.16Q356.15-54.29 356.15-51.48L356.15-51.48L356.15-51.48Q356.15-48.79 355.68-46.80L355.68-46.80L355.68-46.80Q356.15-44.93 356.15-42.12L356.15-42.12L356.15-42.12Q356.15-39.43 355.68-37.44L355.68-37.44L355.68-37.44Q356.15-35.57 356.15-32.76L356.15-32.76L356.15-32.76Q356.15-30.07 355.68-28.08L355.68-28.08L355.68-28.08Q356.15-26.21 356.15-23.40L356.15-23.40L356.15-23.40Q356.15-20.71 355.68-18.72L355.68-18.72L355.68-18.72Q356.15-16.85 356.15-14.04L356.15-14.04L356.15-14.04Q356.15-11.35 355.68-9.36L355.68-9.36" fill="#979797" stroke="none" stroke-width="none" transform="translate(-276.5899963378906,24.897595825195314)" style="fill: rgb(189, 189, 189);"></path></g><g class="path" style="transform-origin: 121.21px -7.86241px; transform: scale(1); animation: 1s linear -0.165s infinite normal forwards running beat-4dc2fbbe-358c-440d-8ea3-1a7663b6f931;"><path d="M407.16-18.72L416.52-18.72L416.52-18.72Q416.99-16.85 416.99-14.04L416.99-14.04L416.99-14.04Q416.99-11.35 416.52-9.36L416.52-9.36L411.84-9.36L411.84-9.36Q412.31-7.49 412.31-4.68L412.31-4.68L412.31-4.68Q412.31-1.99 411.84 0L411.84 0L388.44 0L388.44 0Q387.97-1.99 387.97-4.68L387.97-4.68L387.97-4.68Q387.97-7.49 388.44-9.36L388.44-9.36L383.76-9.36L383.76-9.36Q383.29-11.35 383.29-14.04L383.29-14.04L383.29-14.04Q383.29-16.85 383.76-18.72L383.76-18.72L379.08-18.72L379.08-18.72Q378.61-20.71 378.61-23.40L378.61-23.40L378.61-23.40Q378.61-26.21 379.08-28.08L379.08-28.08L379.08-28.08Q378.61-30.07 378.61-32.76L378.61-32.76L378.61-32.76Q378.61-35.57 379.08-37.44L379.08-37.44L379.08-37.44Q378.61-39.43 378.61-42.12L378.61-42.12L378.61-42.12Q378.61-44.93 379.08-46.80L379.08-46.80L383.76-46.80L383.76-46.80Q383.29-48.79 383.29-51.48L383.29-51.48L383.29-51.48Q383.29-54.29 383.76-56.16L383.76-56.16L388.44-56.16L388.44-56.16Q387.97-58.15 387.97-60.84L387.97-60.84L387.97-60.84Q387.97-63.65 388.44-65.52L388.44-65.52L411.84-65.52L411.84-65.52Q412.31-63.65 412.31-60.84L412.31-60.84L412.31-60.84Q412.31-58.15 411.84-56.16L411.84-56.16L416.52-56.16L416.52-56.16Q416.99-54.29 416.99-51.48L416.99-51.48L416.99-51.48Q416.99-48.79 416.52-46.80L416.52-46.80L407.16-46.80L407.16-46.80Q406.69-48.79 406.69-51.48L406.69-51.48L406.69-51.48Q406.69-54.29 407.16-56.16L407.16-56.16L393.12-56.16L393.12-56.16Q393.59-54.29 393.59-51.48L393.59-51.48L393.59-51.48Q393.59-48.79 393.12-46.80L393.12-46.80L388.44-46.80L388.44-46.80Q388.91-44.93 388.91-42.12L388.91-42.12L388.91-42.12Q388.91-39.43 388.44-37.44L388.44-37.44L388.44-37.44Q388.91-35.57 388.91-32.76L388.91-32.76L388.91-32.76Q388.91-30.07 388.44-28.08L388.44-28.08L388.44-28.08Q388.91-26.21 388.91-23.40L388.91-23.40L388.91-23.40Q388.91-20.71 388.44-18.72L388.44-18.72L393.12-18.72L393.12-18.72Q393.59-16.85 393.59-14.04L393.59-14.04L393.59-14.04Q393.59-11.35 393.12-9.36L393.12-9.36L407.16-9.36L407.16-9.36Q406.69-11.35 406.69-14.04L406.69-14.04L406.69-14.04Q406.69-16.85 407.16-18.72L407.16-18.72" fill="#979797" stroke="none" stroke-width="none" transform="translate(-276.5899963378906,24.897595825195314)" style="fill: rgb(226, 226, 226);"></path></g><g class="path" style="transform-origin: 168.01px -7.86241px; transform: scale(1); animation: 1s linear -0.11s infinite normal forwards running beat-4dc2fbbe-358c-440d-8ea3-1a7663b6f931;"><path d="M459.81-9.36L463.32-9.36L463.32-9.36Q463.79-7.49 463.79-4.68L463.79-4.68L463.79-4.68Q463.79-1.99 463.32 0L463.32 0L453.96 0L453.96 0Q453.49-1.99 453.49-4.68L453.49-4.68L453.49-4.68Q453.49-7.49 453.96-9.36L453.96-9.36L450.45-9.36L450.45-9.36Q449.98-11.35 449.98-14.04L449.98-14.04L449.98-14.04Q449.98-16.85 450.45-18.72L450.45-18.72L443.43-18.72L443.43-18.72Q442.96-20.71 442.96-23.40L442.96-23.40L442.96-23.40Q442.96-26.21 443.43-28.08L443.43-28.08L435.24-28.08L435.24-28.08Q435.71-26.21 435.71-23.40L435.71-23.40L435.71-23.40Q435.71-20.71 435.24-18.72L435.24-18.72L435.24-18.72Q435.71-16.85 435.71-14.04L435.71-14.04L435.71-14.04Q435.71-11.35 435.24-9.36L435.24-9.36L435.24-9.36Q435.71-7.49 435.71-4.68L435.71-4.68L435.71-4.68Q435.71-1.99 435.24 0L435.24 0L425.88 0L425.88 0Q425.41-1.99 425.41-4.68L425.41-4.68L425.41-4.68Q425.41-7.49 425.88-9.36L425.88-9.36L425.88-9.36Q425.41-11.35 425.41-14.04L425.41-14.04L425.41-14.04Q425.41-16.85 425.88-18.72L425.88-18.72L425.88-18.72Q425.41-20.71 425.41-23.40L425.41-23.40L425.41-23.40Q425.41-26.21 425.88-28.08L425.88-28.08L425.88-28.08Q425.41-30.07 425.41-32.76L425.41-32.76L425.41-32.76Q425.41-35.57 425.88-37.44L425.88-37.44L425.88-37.44Q425.41-39.43 425.41-42.12L425.41-42.12L425.41-42.12Q425.41-44.93 425.88-46.80L425.88-46.80L425.88-46.80Q425.41-48.79 425.41-51.48L425.41-51.48L425.41-51.48Q425.41-54.29 425.88-56.16L425.88-56.16L425.88-56.16Q425.41-58.15 425.41-60.84L425.41-60.84L425.41-60.84Q425.41-63.65 425.88-65.52L425.88-65.52L435.24-65.52L435.24-65.52Q435.71-63.65 435.71-60.84L435.71-60.84L435.71-60.84Q435.71-58.15 435.24-56.16L435.24-56.16L435.24-56.16Q435.71-54.29 435.71-51.48L435.71-51.48L435.71-51.48Q435.71-48.79 435.24-46.80L435.24-46.80L435.24-46.80Q435.71-44.93 435.71-42.12L435.71-42.12L435.71-42.12Q435.71-39.43 435.24-37.44L435.24-37.44L443.43-37.44L443.43-37.44Q442.96-39.43 442.96-42.12L442.96-42.12L442.96-42.12Q442.96-44.93 443.43-46.80L443.43-46.80L450.45-46.80L450.45-46.80Q449.98-48.79 449.98-51.48L449.98-51.48L449.98-51.48Q449.98-54.29 450.45-56.16L450.45-56.16L453.96-56.16L453.96-56.16Q453.49-58.15 453.49-60.84L453.49-60.84L453.49-60.84Q453.49-63.65 453.96-65.52L453.96-65.52L463.32-65.52L463.32-65.52Q463.79-63.65 463.79-60.84L463.79-60.84L463.79-60.84Q463.79-58.15 463.32-56.16L463.32-56.16L459.81-56.16L459.81-56.16Q460.28-54.29 460.28-51.48L460.28-51.48L460.28-51.48Q460.28-48.79 459.81-46.80L459.81-46.80L452.79-46.80L452.79-46.80Q453.26-44.93 453.26-42.12L453.26-42.12L453.26-42.12Q453.26-39.43 452.79-37.44L452.79-37.44L446.94-37.44L446.94-37.44Q447.41-35.57 447.41-32.76L447.41-32.76L447.41-32.76Q447.41-30.07 446.94-28.08L446.94-28.08L452.79-28.08L452.79-28.08Q453.26-26.21 453.26-23.40L453.26-23.40L453.26-23.40Q453.26-20.71 452.79-18.72L452.79-18.72L459.81-18.72L459.81-18.72Q460.28-16.85 460.28-14.04L460.28-14.04L460.28-14.04Q460.28-11.35 459.81-9.36L459.81-9.36" fill="#979797" stroke="none" stroke-width="none" transform="translate(-276.5899963378906,24.897595825195314)" style="fill: rgb(248, 248, 248);"></path></g><g class="path" style="transform-origin: 214.81px -7.86241px; transform: scale(1); animation: 1s linear -0.055s infinite normal forwards running beat-4dc2fbbe-358c-440d-8ea3-1a7663b6f931;"><path d="M505.44-28.08L486.72-28.08L486.72-28.08Q487.19-26.21 487.19-23.40L487.19-23.40L487.19-23.40Q487.19-20.71 486.72-18.72L486.72-18.72L486.72-18.72Q487.19-16.85 487.19-14.04L487.19-14.04L487.19-14.04Q487.19-11.35 486.72-9.36L486.72-9.36L505.44-9.36L505.44-9.36Q505.91-7.49 505.91-4.68L505.91-4.68L505.91-4.68Q505.91-1.99 505.44 0L505.44 0L477.36 0L477.36 0Q476.89-1.99 476.89-4.68L476.89-4.68L476.89-4.68Q476.89-7.49 477.36-9.36L477.36-9.36L477.36-9.36Q476.89-11.35 476.89-14.04L476.89-14.04L476.89-14.04Q476.89-16.85 477.36-18.72L477.36-18.72L477.36-18.72Q476.89-20.71 476.89-23.40L476.89-23.40L476.89-23.40Q476.89-26.21 477.36-28.08L477.36-28.08L477.36-28.08Q476.89-30.07 476.89-32.76L476.89-32.76L476.89-32.76Q476.89-35.57 477.36-37.44L477.36-37.44L477.36-37.44Q476.89-39.43 476.89-42.12L476.89-42.12L476.89-42.12Q476.89-44.93 477.36-46.80L477.36-46.80L477.36-46.80Q476.89-48.79 476.89-51.48L476.89-51.48L476.89-51.48Q476.89-54.29 477.36-56.16L477.36-56.16L477.36-56.16Q476.89-58.15 476.89-60.84L476.89-60.84L476.89-60.84Q476.89-63.65 477.36-65.52L477.36-65.52L505.44-65.52L505.44-65.52Q505.91-63.65 505.91-60.84L505.91-60.84L505.91-60.84Q505.91-58.15 505.44-56.16L505.44-56.16L486.72-56.16L486.72-56.16Q487.19-54.29 487.19-51.48L487.19-51.48L487.19-51.48Q487.19-48.79 486.72-46.80L486.72-46.80L486.72-46.80Q487.19-44.93 487.19-42.12L487.19-42.12L487.19-42.12Q487.19-39.43 486.72-37.44L486.72-37.44L505.44-37.44L505.44-37.44Q505.91-35.57 505.91-32.76L505.91-32.76L505.91-32.76Q505.91-30.07 505.44-28.08L505.44-28.08" fill="#979797" stroke="none" stroke-width="none" transform="translate(-276.5899963378906,24.897595825195314)" style="fill: rgb(106, 106, 106);"></path></g><g class="path" style="transform-origin: 261.61px -7.86241px; transform: scale(1); animation: 1s linear 0s infinite normal forwards running beat-4dc2fbbe-358c-440d-8ea3-1a7663b6f931;"><path d="M553.41-9.36L556.92-9.36L556.92-9.36Q557.39-7.49 557.39-4.68L557.39-4.68L557.39-4.68Q557.39-1.99 556.92 0L556.92 0L547.56 0L547.56 0Q547.09-1.99 547.09-4.68L547.09-4.68L547.09-4.68Q547.09-7.49 547.56-9.36L547.56-9.36L544.05-9.36L544.05-9.36Q543.58-11.35 543.58-14.04L543.58-14.04L543.58-14.04Q543.58-16.85 544.05-18.72L544.05-18.72L540.54-18.72L540.54-18.72Q540.07-20.71 540.07-23.40L540.07-23.40L540.07-23.40Q540.07-26.21 540.54-28.08L540.54-28.08L528.84-28.08L528.84-28.08Q529.31-26.21 529.31-23.40L529.31-23.40L529.31-23.40Q529.31-20.71 528.84-18.72L528.84-18.72L528.84-18.72Q529.31-16.85 529.31-14.04L529.31-14.04L529.31-14.04Q529.31-11.35 528.84-9.36L528.84-9.36L528.84-9.36Q529.31-7.49 529.31-4.68L529.31-4.68L529.31-4.68Q529.31-1.99 528.84 0L528.84 0L519.48 0L519.48 0Q519.01-1.99 519.01-4.68L519.01-4.68L519.01-4.68Q519.01-7.49 519.48-9.36L519.48-9.36L519.48-9.36Q519.01-11.35 519.01-14.04L519.01-14.04L519.01-14.04Q519.01-16.85 519.48-18.72L519.48-18.72L519.48-18.72Q519.01-20.71 519.01-23.40L519.01-23.40L519.01-23.40Q519.01-26.21 519.48-28.08L519.48-28.08L519.48-28.08Q519.01-30.07 519.01-32.76L519.01-32.76L519.01-32.76Q519.01-35.57 519.48-37.44L519.48-37.44L519.48-37.44Q519.01-39.43 519.01-42.12L519.01-42.12L519.01-42.12Q519.01-44.93 519.48-46.80L519.48-46.80L519.48-46.80Q519.01-48.79 519.01-51.48L519.01-51.48L519.01-51.48Q519.01-54.29 519.48-56.16L519.48-56.16L519.48-56.16Q519.01-58.15 519.01-60.84L519.01-60.84L519.01-60.84Q519.01-63.65 519.48-65.52L519.48-65.52L552.24-65.52L552.24-65.52Q552.71-63.65 552.71-60.84L552.71-60.84L552.71-60.84Q552.71-58.15 552.24-56.16L552.24-56.16L556.92-56.16L556.92-56.16Q557.39-54.29 557.39-51.48L557.39-51.48L557.39-51.48Q557.39-48.79 556.92-46.80L556.92-46.80L554.58-46.80L554.58-46.80Q555.05-44.93 555.05-42.12L555.05-42.12L555.05-42.12Q555.05-39.43 554.58-37.44L554.58-37.44L547.56-37.44L547.56-37.44Q548.03-35.57 548.03-32.76L548.03-32.76L548.03-32.76Q548.03-30.07 547.56-28.08L547.56-28.08L549.90-28.08L549.90-28.08Q550.37-26.21 550.37-23.40L550.37-23.40L550.37-23.40Q550.37-20.71 549.90-18.72L549.90-18.72L553.41-18.72L553.41-18.72Q553.88-16.85 553.88-14.04L553.88-14.04L553.88-14.04Q553.88-11.35 553.41-9.36L553.41-9.36zM545.22-37.44L545.22-37.44Q544.75-39.43 544.75-42.12L544.75-42.12L544.75-42.12Q544.75-44.93 545.22-46.80L545.22-46.80L545.22-46.80Q544.75-48.79 544.75-51.48L544.75-51.48L544.75-51.48Q544.75-54.29 545.22-56.16L545.22-56.16L528.84-56.16L528.84-56.16Q529.31-54.29 529.31-51.48L529.31-51.48L529.31-51.48Q529.31-48.79 528.84-46.80L528.84-46.80L528.84-46.80Q529.31-44.93 529.31-42.12L529.31-42.12L529.31-42.12Q529.31-39.43 528.84-37.44L528.84-37.44L545.22-37.44" fill="#979797" stroke="none" stroke-width="none" transform="translate(-276.5899963378906,24.897595825195314)" style="fill: rgb(151, 151, 151);"></path></g></g>
</g>
<style id="beat-4dc2fbbe-358c-440d-8ea3-1a7663b6f931" data-anikit="">@keyframes beat-4dc2fbbe-358c-440d-8ea3-1a7663b6f931
{
  0% {
    animation-timing-function: cubic-bezier(0.1028,0.2484,0.1372,0.849);
    transform: scale(1);
  }
  34% {
    animation-timing-function: cubic-bezier(0.7116,0.2095,0.8159,0.6876);
    transform: scale(1.2);
  }
  68% {
    animation-timing-function: cubic-bezier(0.1475,0.2888,0.294,0.883);
    transform: scale(1.0268);
  }
  84% {
    animation-timing-function: cubic-bezier(0.8176,0.2193,0.867,0.6889);
    transform: scale(1.0932);
  }
  100% {
    transform: scale(1);
  }
}</style><style id="beat-4dc2fbbe-358c-440d-8ea3-1a7663b6f931" data-anikit="">@keyframes beat-4dc2fbbe-358c-440d-8ea3-1a7663b6f931
{
  0% {
    animation-timing-function: cubic-bezier(0.1028,0.2484,0.1372,0.849);
    transform: scale(1);
  }
  34% {
    animation-timing-function: cubic-bezier(0.7116,0.2095,0.8159,0.6876);
    transform: scale(1.2);
  }
  68% {
    animation-timing-function: cubic-bezier(0.1475,0.2888,0.294,0.883);
    transform: scale(1.0268);
  }
  84% {
    animation-timing-function: cubic-bezier(0.8176,0.2193,0.867,0.6889);
    transform: scale(1.0932);
  }
  100% {
    transform: scale(1);
  }
}</style></svg>